<?xml version="1.0" encoding="utf-8" standalone="no"?>
<!DOCTYPE svg PUBLIC "-//W3C//DTD SVG 1.1//EN"
  "http://www.w3.org/Graphics/SVG/1.1/DTD/svg11.dtd">
<svg xmlns:xlink="http://www.w3.org/1999/xlink" width="460.8pt" height="345.6pt" viewBox="0 0 460.8 345.6" xmlns="http://www.w3.org/2000/svg" version="1.1">
 <metadata>
  <rdf:RDF xmlns:dc="http://purl.org/dc/elements/1.1/" xmlns:cc="http://creativecommons.org/ns#" xmlns:rdf="http://www.w3.org/1999/02/22-rdf-syntax-ns#">
   <cc:Work>
    <dc:type rdf:resource="http://purl.org/dc/dcmitype/StillImage"/>
    <dc:date>2025-12-07T17:23:24.954665</dc:date>
    <dc:format>image/svg+xml</dc:format>
    <dc:creator>
     <cc:Agent>
      <dc:title>Matplotlib v3.8.4, https://matplotlib.org/</dc:title>
     </cc:Agent>
    </dc:creator>
   </cc:Work>
  </rdf:RDF>
 </metadata>
 <defs>
  <style type="text/css">*{stroke-linejoin: round; stroke-linecap: butt}</style>
 </defs>
 <g id="figure_1">
  <g id="patch_1">
   <path d="M 0 345.6 
L 460.8 345.6 
L 460.8 0 
L 0 0 
z
" style="fill: #ffffff"/>
  </g>
  <g id="axes_1">
   <g id="patch_2">
    <path d="M 57.6 307.584 
L 414.72 307.584 
L 414.72 41.472 
L 57.6 41.472 
z
" style="fill: #ffffff"/>
   </g>
   <g id="matplotlib.axis_1">
    <g id="xtick_1">
     <g id="line2d_1">
      <defs>
       <path id="m995ccce67a" d="M 0 0 
L 0 3.5 
" style="stroke: #000000; stroke-width: 0.8"/>
      </defs>
      <g>
       <use xlink:href="#m995ccce67a" x="108.037864" y="307.584" style="stroke: #000000; stroke-width: 0.8"/>
      </g>
     </g>
     <g id="text_1">
      <!-- 270 -->
      <g transform="translate(98.494114 322.182437) scale(0.1 -0.1)">
       <defs>
        <path id="DejaVuSans-32" d="M 1228 531 
L 3431 531 
L 3431 0 
L 469 0 
L 469 531 
Q 828 903 1448 1529 
Q 2069 2156 2228 2338 
Q 2531 2678 2651 2914 
Q 2772 3150 2772 3378 
Q 2772 3750 2511 3984 
Q 2250 4219 1831 4219 
Q 1534 4219 1204 4116 
Q 875 4013 500 3803 
L 500 4441 
Q 881 4594 1212 4672 
Q 1544 4750 1819 4750 
Q 2544 4750 2975 4387 
Q 3406 4025 3406 3419 
Q 3406 3131 3298 2873 
Q 3191 2616 2906 2266 
Q 2828 2175 2409 1742 
Q 1991 1309 1228 531 
z
" transform="scale(0.015625)"/>
        <path id="DejaVuSans-37" d="M 525 4666 
L 3525 4666 
L 3525 4397 
L 1831 0 
L 1172 0 
L 2766 4134 
L 525 4134 
L 525 4666 
z
" transform="scale(0.015625)"/>
        <path id="DejaVuSans-30" d="M 2034 4250 
Q 1547 4250 1301 3770 
Q 1056 3291 1056 2328 
Q 1056 1369 1301 889 
Q 1547 409 2034 409 
Q 2525 409 2770 889 
Q 3016 1369 3016 2328 
Q 3016 3291 2770 3770 
Q 2525 4250 2034 4250 
z
M 2034 4750 
Q 2819 4750 3233 4129 
Q 3647 3509 3647 2328 
Q 3647 1150 3233 529 
Q 2819 -91 2034 -91 
Q 1250 -91 836 529 
Q 422 1150 422 2328 
Q 422 3509 836 4129 
Q 1250 4750 2034 4750 
z
" transform="scale(0.015625)"/>
       </defs>
       <use xlink:href="#DejaVuSans-32"/>
       <use xlink:href="#DejaVuSans-37" x="63.623047"/>
       <use xlink:href="#DejaVuSans-30" x="127.246094"/>
      </g>
     </g>
    </g>
    <g id="xtick_2">
     <g id="line2d_2">
      <g>
       <use xlink:href="#m995ccce67a" x="167.38835" y="307.584" style="stroke: #000000; stroke-width: 0.8"/>
      </g>
     </g>
     <g id="text_2">
      <!-- 275 -->
      <g transform="translate(157.8446 322.182437) scale(0.1 -0.1)">
       <defs>
        <path id="DejaVuSans-35" d="M 691 4666 
L 3169 4666 
L 3169 4134 
L 1269 4134 
L 1269 2991 
Q 1406 3038 1543 3061 
Q 1681 3084 1819 3084 
Q 2600 3084 3056 2656 
Q 3513 2228 3513 1497 
Q 3513 744 3044 326 
Q 2575 -91 1722 -91 
Q 1428 -91 1123 -41 
Q 819 9 494 109 
L 494 744 
Q 775 591 1075 516 
Q 1375 441 1709 441 
Q 2250 441 2565 725 
Q 2881 1009 2881 1497 
Q 2881 1984 2565 2268 
Q 2250 2553 1709 2553 
Q 1456 2553 1204 2497 
Q 953 2441 691 2322 
L 691 4666 
z
" transform="scale(0.015625)"/>
       </defs>
       <use xlink:href="#DejaVuSans-32"/>
       <use xlink:href="#DejaVuSans-37" x="63.623047"/>
       <use xlink:href="#DejaVuSans-35" x="127.246094"/>
      </g>
     </g>
    </g>
    <g id="xtick_3">
     <g id="line2d_3">
      <g>
       <use xlink:href="#m995ccce67a" x="226.738836" y="307.584" style="stroke: #000000; stroke-width: 0.8"/>
      </g>
     </g>
     <g id="text_3">
      <!-- 280 -->
      <g transform="translate(217.195086 322.182437) scale(0.1 -0.1)">
       <defs>
        <path id="DejaVuSans-38" d="M 2034 2216 
Q 1584 2216 1326 1975 
Q 1069 1734 1069 1313 
Q 1069 891 1326 650 
Q 1584 409 2034 409 
Q 2484 409 2743 651 
Q 3003 894 3003 1313 
Q 3003 1734 2745 1975 
Q 2488 2216 2034 2216 
z
M 1403 2484 
Q 997 2584 770 2862 
Q 544 3141 544 3541 
Q 544 4100 942 4425 
Q 1341 4750 2034 4750 
Q 2731 4750 3128 4425 
Q 3525 4100 3525 3541 
Q 3525 3141 3298 2862 
Q 3072 2584 2669 2484 
Q 3125 2378 3379 2068 
Q 3634 1759 3634 1313 
Q 3634 634 3220 271 
Q 2806 -91 2034 -91 
Q 1263 -91 848 271 
Q 434 634 434 1313 
Q 434 1759 690 2068 
Q 947 2378 1403 2484 
z
M 1172 3481 
Q 1172 3119 1398 2916 
Q 1625 2713 2034 2713 
Q 2441 2713 2670 2916 
Q 2900 3119 2900 3481 
Q 2900 3844 2670 4047 
Q 2441 4250 2034 4250 
Q 1625 4250 1398 4047 
Q 1172 3844 1172 3481 
z
" transform="scale(0.015625)"/>
       </defs>
       <use xlink:href="#DejaVuSans-32"/>
       <use xlink:href="#DejaVuSans-38" x="63.623047"/>
       <use xlink:href="#DejaVuSans-30" x="127.246094"/>
      </g>
     </g>
    </g>
    <g id="xtick_4">
     <g id="line2d_4">
      <g>
       <use xlink:href="#m995ccce67a" x="286.089322" y="307.584" style="stroke: #000000; stroke-width: 0.8"/>
      </g>
     </g>
     <g id="text_4">
      <!-- 285 -->
      <g transform="translate(276.545572 322.182437) scale(0.1 -0.1)">
       <use xlink:href="#DejaVuSans-32"/>
       <use xlink:href="#DejaVuSans-38" x="63.623047"/>
       <use xlink:href="#DejaVuSans-35" x="127.246094"/>
      </g>
     </g>
    </g>
    <g id="xtick_5">
     <g id="line2d_5">
      <g>
       <use xlink:href="#m995ccce67a" x="345.439808" y="307.584" style="stroke: #000000; stroke-width: 0.8"/>
      </g>
     </g>
     <g id="text_5">
      <!-- 290 -->
      <g transform="translate(335.896058 322.182437) scale(0.1 -0.1)">
       <defs>
        <path id="DejaVuSans-39" d="M 703 97 
L 703 672 
Q 941 559 1184 500 
Q 1428 441 1663 441 
Q 2288 441 2617 861 
Q 2947 1281 2994 2138 
Q 2813 1869 2534 1725 
Q 2256 1581 1919 1581 
Q 1219 1581 811 2004 
Q 403 2428 403 3163 
Q 403 3881 828 4315 
Q 1253 4750 1959 4750 
Q 2769 4750 3195 4129 
Q 3622 3509 3622 2328 
Q 3622 1225 3098 567 
Q 2575 -91 1691 -91 
Q 1453 -91 1209 -44 
Q 966 3 703 97 
z
M 1959 2075 
Q 2384 2075 2632 2365 
Q 2881 2656 2881 3163 
Q 2881 3666 2632 3958 
Q 2384 4250 1959 4250 
Q 1534 4250 1286 3958 
Q 1038 3666 1038 3163 
Q 1038 2656 1286 2365 
Q 1534 2075 1959 2075 
z
" transform="scale(0.015625)"/>
       </defs>
       <use xlink:href="#DejaVuSans-32"/>
       <use xlink:href="#DejaVuSans-39" x="63.623047"/>
       <use xlink:href="#DejaVuSans-30" x="127.246094"/>
      </g>
     </g>
    </g>
    <g id="xtick_6">
     <g id="line2d_6">
      <g>
       <use xlink:href="#m995ccce67a" x="404.790294" y="307.584" style="stroke: #000000; stroke-width: 0.8"/>
      </g>
     </g>
     <g id="text_6">
      <!-- 295 -->
      <g transform="translate(395.246544 322.182437) scale(0.1 -0.1)">
       <use xlink:href="#DejaVuSans-32"/>
       <use xlink:href="#DejaVuSans-39" x="63.623047"/>
       <use xlink:href="#DejaVuSans-35" x="127.246094"/>
      </g>
     </g>
    </g>
    <g id="text_7">
     <!-- Potential temperature (K) -->
     <g transform="translate(172.474844 335.860562) scale(0.1 -0.1)">
      <defs>
       <path id="DejaVuSans-50" d="M 1259 4147 
L 1259 2394 
L 2053 2394 
Q 2494 2394 2734 2622 
Q 2975 2850 2975 3272 
Q 2975 3691 2734 3919 
Q 2494 4147 2053 4147 
L 1259 4147 
z
M 628 4666 
L 2053 4666 
Q 2838 4666 3239 4311 
Q 3641 3956 3641 3272 
Q 3641 2581 3239 2228 
Q 2838 1875 2053 1875 
L 1259 1875 
L 1259 0 
L 628 0 
L 628 4666 
z
" transform="scale(0.015625)"/>
       <path id="DejaVuSans-6f" d="M 1959 3097 
Q 1497 3097 1228 2736 
Q 959 2375 959 1747 
Q 959 1119 1226 758 
Q 1494 397 1959 397 
Q 2419 397 2687 759 
Q 2956 1122 2956 1747 
Q 2956 2369 2687 2733 
Q 2419 3097 1959 3097 
z
M 1959 3584 
Q 2709 3584 3137 3096 
Q 3566 2609 3566 1747 
Q 3566 888 3137 398 
Q 2709 -91 1959 -91 
Q 1206 -91 779 398 
Q 353 888 353 1747 
Q 353 2609 779 3096 
Q 1206 3584 1959 3584 
z
" transform="scale(0.015625)"/>
       <path id="DejaVuSans-74" d="M 1172 4494 
L 1172 3500 
L 2356 3500 
L 2356 3053 
L 1172 3053 
L 1172 1153 
Q 1172 725 1289 603 
Q 1406 481 1766 481 
L 2356 481 
L 2356 0 
L 1766 0 
Q 1100 0 847 248 
Q 594 497 594 1153 
L 594 3053 
L 172 3053 
L 172 3500 
L 594 3500 
L 594 4494 
L 1172 4494 
z
" transform="scale(0.015625)"/>
       <path id="DejaVuSans-65" d="M 3597 1894 
L 3597 1613 
L 953 1613 
Q 991 1019 1311 708 
Q 1631 397 2203 397 
Q 2534 397 2845 478 
Q 3156 559 3463 722 
L 3463 178 
Q 3153 47 2828 -22 
Q 2503 -91 2169 -91 
Q 1331 -91 842 396 
Q 353 884 353 1716 
Q 353 2575 817 3079 
Q 1281 3584 2069 3584 
Q 2775 3584 3186 3129 
Q 3597 2675 3597 1894 
z
M 3022 2063 
Q 3016 2534 2758 2815 
Q 2500 3097 2075 3097 
Q 1594 3097 1305 2825 
Q 1016 2553 972 2059 
L 3022 2063 
z
" transform="scale(0.015625)"/>
       <path id="DejaVuSans-6e" d="M 3513 2113 
L 3513 0 
L 2938 0 
L 2938 2094 
Q 2938 2591 2744 2837 
Q 2550 3084 2163 3084 
Q 1697 3084 1428 2787 
Q 1159 2491 1159 1978 
L 1159 0 
L 581 0 
L 581 3500 
L 1159 3500 
L 1159 2956 
Q 1366 3272 1645 3428 
Q 1925 3584 2291 3584 
Q 2894 3584 3203 3211 
Q 3513 2838 3513 2113 
z
" transform="scale(0.015625)"/>
       <path id="DejaVuSans-69" d="M 603 3500 
L 1178 3500 
L 1178 0 
L 603 0 
L 603 3500 
z
M 603 4863 
L 1178 4863 
L 1178 4134 
L 603 4134 
L 603 4863 
z
" transform="scale(0.015625)"/>
       <path id="DejaVuSans-61" d="M 2194 1759 
Q 1497 1759 1228 1600 
Q 959 1441 959 1056 
Q 959 750 1161 570 
Q 1363 391 1709 391 
Q 2188 391 2477 730 
Q 2766 1069 2766 1631 
L 2766 1759 
L 2194 1759 
z
M 3341 1997 
L 3341 0 
L 2766 0 
L 2766 531 
Q 2569 213 2275 61 
Q 1981 -91 1556 -91 
Q 1019 -91 701 211 
Q 384 513 384 1019 
Q 384 1609 779 1909 
Q 1175 2209 1959 2209 
L 2766 2209 
L 2766 2266 
Q 2766 2663 2505 2880 
Q 2244 3097 1772 3097 
Q 1472 3097 1187 3025 
Q 903 2953 641 2809 
L 641 3341 
Q 956 3463 1253 3523 
Q 1550 3584 1831 3584 
Q 2591 3584 2966 3190 
Q 3341 2797 3341 1997 
z
" transform="scale(0.015625)"/>
       <path id="DejaVuSans-6c" d="M 603 4863 
L 1178 4863 
L 1178 0 
L 603 0 
L 603 4863 
z
" transform="scale(0.015625)"/>
       <path id="DejaVuSans-20" transform="scale(0.015625)"/>
       <path id="DejaVuSans-6d" d="M 3328 2828 
Q 3544 3216 3844 3400 
Q 4144 3584 4550 3584 
Q 5097 3584 5394 3201 
Q 5691 2819 5691 2113 
L 5691 0 
L 5113 0 
L 5113 2094 
Q 5113 2597 4934 2840 
Q 4756 3084 4391 3084 
Q 3944 3084 3684 2787 
Q 3425 2491 3425 1978 
L 3425 0 
L 2847 0 
L 2847 2094 
Q 2847 2600 2669 2842 
Q 2491 3084 2119 3084 
Q 1678 3084 1418 2786 
Q 1159 2488 1159 1978 
L 1159 0 
L 581 0 
L 581 3500 
L 1159 3500 
L 1159 2956 
Q 1356 3278 1631 3431 
Q 1906 3584 2284 3584 
Q 2666 3584 2933 3390 
Q 3200 3197 3328 2828 
z
" transform="scale(0.015625)"/>
       <path id="DejaVuSans-70" d="M 1159 525 
L 1159 -1331 
L 581 -1331 
L 581 3500 
L 1159 3500 
L 1159 2969 
Q 1341 3281 1617 3432 
Q 1894 3584 2278 3584 
Q 2916 3584 3314 3078 
Q 3713 2572 3713 1747 
Q 3713 922 3314 415 
Q 2916 -91 2278 -91 
Q 1894 -91 1617 61 
Q 1341 213 1159 525 
z
M 3116 1747 
Q 3116 2381 2855 2742 
Q 2594 3103 2138 3103 
Q 1681 3103 1420 2742 
Q 1159 2381 1159 1747 
Q 1159 1113 1420 752 
Q 1681 391 2138 391 
Q 2594 391 2855 752 
Q 3116 1113 3116 1747 
z
" transform="scale(0.015625)"/>
       <path id="DejaVuSans-72" d="M 2631 2963 
Q 2534 3019 2420 3045 
Q 2306 3072 2169 3072 
Q 1681 3072 1420 2755 
Q 1159 2438 1159 1844 
L 1159 0 
L 581 0 
L 581 3500 
L 1159 3500 
L 1159 2956 
Q 1341 3275 1631 3429 
Q 1922 3584 2338 3584 
Q 2397 3584 2469 3576 
Q 2541 3569 2628 3553 
L 2631 2963 
z
" transform="scale(0.015625)"/>
       <path id="DejaVuSans-75" d="M 544 1381 
L 544 3500 
L 1119 3500 
L 1119 1403 
Q 1119 906 1312 657 
Q 1506 409 1894 409 
Q 2359 409 2629 706 
Q 2900 1003 2900 1516 
L 2900 3500 
L 3475 3500 
L 3475 0 
L 2900 0 
L 2900 538 
Q 2691 219 2414 64 
Q 2138 -91 1772 -91 
Q 1169 -91 856 284 
Q 544 659 544 1381 
z
M 1991 3584 
L 1991 3584 
z
" transform="scale(0.015625)"/>
       <path id="DejaVuSans-28" d="M 1984 4856 
Q 1566 4138 1362 3434 
Q 1159 2731 1159 2009 
Q 1159 1288 1364 580 
Q 1569 -128 1984 -844 
L 1484 -844 
Q 1016 -109 783 600 
Q 550 1309 550 2009 
Q 550 2706 781 3412 
Q 1013 4119 1484 4856 
L 1984 4856 
z
" transform="scale(0.015625)"/>
       <path id="DejaVuSans-4b" d="M 628 4666 
L 1259 4666 
L 1259 2694 
L 3353 4666 
L 4166 4666 
L 1850 2491 
L 4331 0 
L 3500 0 
L 1259 2247 
L 1259 0 
L 628 0 
L 628 4666 
z
" transform="scale(0.015625)"/>
       <path id="DejaVuSans-29" d="M 513 4856 
L 1013 4856 
Q 1481 4119 1714 3412 
Q 1947 2706 1947 2009 
Q 1947 1309 1714 600 
Q 1481 -109 1013 -844 
L 513 -844 
Q 928 -128 1133 580 
Q 1338 1288 1338 2009 
Q 1338 2731 1133 3434 
Q 928 4138 513 4856 
z
" transform="scale(0.015625)"/>
      </defs>
      <use xlink:href="#DejaVuSans-50"/>
      <use xlink:href="#DejaVuSans-6f" x="56.677734"/>
      <use xlink:href="#DejaVuSans-74" x="117.859375"/>
      <use xlink:href="#DejaVuSans-65" x="157.068359"/>
      <use xlink:href="#DejaVuSans-6e" x="218.591797"/>
      <use xlink:href="#DejaVuSans-74" x="281.970703"/>
      <use xlink:href="#DejaVuSans-69" x="321.179688"/>
      <use xlink:href="#DejaVuSans-61" x="348.962891"/>
      <use xlink:href="#DejaVuSans-6c" x="410.242188"/>
      <use xlink:href="#DejaVuSans-20" x="438.025391"/>
      <use xlink:href="#DejaVuSans-74" x="469.8125"/>
      <use xlink:href="#DejaVuSans-65" x="509.021484"/>
      <use xlink:href="#DejaVuSans-6d" x="570.544922"/>
      <use xlink:href="#DejaVuSans-70" x="667.957031"/>
      <use xlink:href="#DejaVuSans-65" x="731.433594"/>
      <use xlink:href="#DejaVuSans-72" x="792.957031"/>
      <use xlink:href="#DejaVuSans-61" x="834.070312"/>
      <use xlink:href="#DejaVuSans-74" x="895.349609"/>
      <use xlink:href="#DejaVuSans-75" x="934.558594"/>
      <use xlink:href="#DejaVuSans-72" x="997.9375"/>
      <use xlink:href="#DejaVuSans-65" x="1036.800781"/>
      <use xlink:href="#DejaVuSans-20" x="1098.324219"/>
      <use xlink:href="#DejaVuSans-28" x="1130.111328"/>
      <use xlink:href="#DejaVuSans-4b" x="1169.125"/>
      <use xlink:href="#DejaVuSans-29" x="1234.701172"/>
     </g>
    </g>
   </g>
   <g id="matplotlib.axis_2">
    <g id="ytick_1">
     <g id="line2d_7">
      <defs>
       <path id="ma5a4c59cf5" d="M 0 0 
L -3.5 0 
" style="stroke: #000000; stroke-width: 0.8"/>
      </defs>
      <g>
       <use xlink:href="#ma5a4c59cf5" x="57.6" y="295.488" style="stroke: #000000; stroke-width: 0.8"/>
      </g>
     </g>
     <g id="text_8">
      <!-- 0 -->
      <g transform="translate(44.2375 299.287219) scale(0.1 -0.1)">
       <use xlink:href="#DejaVuSans-30"/>
      </g>
     </g>
    </g>
    <g id="ytick_2">
     <g id="line2d_8">
      <g>
       <use xlink:href="#ma5a4c59cf5" x="57.6" y="265.248" style="stroke: #000000; stroke-width: 0.8"/>
      </g>
     </g>
     <g id="text_9">
      <!-- 250 -->
      <g transform="translate(31.5125 269.047219) scale(0.1 -0.1)">
       <use xlink:href="#DejaVuSans-32"/>
       <use xlink:href="#DejaVuSans-35" x="63.623047"/>
       <use xlink:href="#DejaVuSans-30" x="127.246094"/>
      </g>
     </g>
    </g>
    <g id="ytick_3">
     <g id="line2d_9">
      <g>
       <use xlink:href="#ma5a4c59cf5" x="57.6" y="235.008" style="stroke: #000000; stroke-width: 0.8"/>
      </g>
     </g>
     <g id="text_10">
      <!-- 500 -->
      <g transform="translate(31.5125 238.807219) scale(0.1 -0.1)">
       <use xlink:href="#DejaVuSans-35"/>
       <use xlink:href="#DejaVuSans-30" x="63.623047"/>
       <use xlink:href="#DejaVuSans-30" x="127.246094"/>
      </g>
     </g>
    </g>
    <g id="ytick_4">
     <g id="line2d_10">
      <g>
       <use xlink:href="#ma5a4c59cf5" x="57.6" y="204.768" style="stroke: #000000; stroke-width: 0.8"/>
      </g>
     </g>
     <g id="text_11">
      <!-- 750 -->
      <g transform="translate(31.5125 208.567219) scale(0.1 -0.1)">
       <use xlink:href="#DejaVuSans-37"/>
       <use xlink:href="#DejaVuSans-35" x="63.623047"/>
       <use xlink:href="#DejaVuSans-30" x="127.246094"/>
      </g>
     </g>
    </g>
    <g id="ytick_5">
     <g id="line2d_11">
      <g>
       <use xlink:href="#ma5a4c59cf5" x="57.6" y="174.528" style="stroke: #000000; stroke-width: 0.8"/>
      </g>
     </g>
     <g id="text_12">
      <!-- 1000 -->
      <g transform="translate(25.15 178.327219) scale(0.1 -0.1)">
       <defs>
        <path id="DejaVuSans-31" d="M 794 531 
L 1825 531 
L 1825 4091 
L 703 3866 
L 703 4441 
L 1819 4666 
L 2450 4666 
L 2450 531 
L 3481 531 
L 3481 0 
L 794 0 
L 794 531 
z
" transform="scale(0.015625)"/>
       </defs>
       <use xlink:href="#DejaVuSans-31"/>
       <use xlink:href="#DejaVuSans-30" x="63.623047"/>
       <use xlink:href="#DejaVuSans-30" x="127.246094"/>
       <use xlink:href="#DejaVuSans-30" x="190.869141"/>
      </g>
     </g>
    </g>
    <g id="ytick_6">
     <g id="line2d_12">
      <g>
       <use xlink:href="#ma5a4c59cf5" x="57.6" y="144.288" style="stroke: #000000; stroke-width: 0.8"/>
      </g>
     </g>
     <g id="text_13">
      <!-- 1250 -->
      <g transform="translate(25.15 148.087219) scale(0.1 -0.1)">
       <use xlink:href="#DejaVuSans-31"/>
       <use xlink:href="#DejaVuSans-32" x="63.623047"/>
       <use xlink:href="#DejaVuSans-35" x="127.246094"/>
       <use xlink:href="#DejaVuSans-30" x="190.869141"/>
      </g>
     </g>
    </g>
    <g id="ytick_7">
     <g id="line2d_13">
      <g>
       <use xlink:href="#ma5a4c59cf5" x="57.6" y="114.048" style="stroke: #000000; stroke-width: 0.8"/>
      </g>
     </g>
     <g id="text_14">
      <!-- 1500 -->
      <g transform="translate(25.15 117.847219) scale(0.1 -0.1)">
       <use xlink:href="#DejaVuSans-31"/>
       <use xlink:href="#DejaVuSans-35" x="63.623047"/>
       <use xlink:href="#DejaVuSans-30" x="127.246094"/>
       <use xlink:href="#DejaVuSans-30" x="190.869141"/>
      </g>
     </g>
    </g>
    <g id="ytick_8">
     <g id="line2d_14">
      <g>
       <use xlink:href="#ma5a4c59cf5" x="57.6" y="83.808" style="stroke: #000000; stroke-width: 0.8"/>
      </g>
     </g>
     <g id="text_15">
      <!-- 1750 -->
      <g transform="translate(25.15 87.607219) scale(0.1 -0.1)">
       <use xlink:href="#DejaVuSans-31"/>
       <use xlink:href="#DejaVuSans-37" x="63.623047"/>
       <use xlink:href="#DejaVuSans-35" x="127.246094"/>
       <use xlink:href="#DejaVuSans-30" x="190.869141"/>
      </g>
     </g>
    </g>
    <g id="ytick_9">
     <g id="line2d_15">
      <g>
       <use xlink:href="#ma5a4c59cf5" x="57.6" y="53.568" style="stroke: #000000; stroke-width: 0.8"/>
      </g>
     </g>
     <g id="text_16">
      <!-- 2000 -->
      <g transform="translate(25.15 57.367219) scale(0.1 -0.1)">
       <use xlink:href="#DejaVuSans-32"/>
       <use xlink:href="#DejaVuSans-30" x="63.623047"/>
       <use xlink:href="#DejaVuSans-30" x="127.246094"/>
       <use xlink:href="#DejaVuSans-30" x="190.869141"/>
      </g>
     </g>
    </g>
    <g id="text_17">
     <!-- Height (m) -->
     <g transform="translate(19.070312 201.417844) rotate(-90) scale(0.1 -0.1)">
      <defs>
       <path id="DejaVuSans-48" d="M 628 4666 
L 1259 4666 
L 1259 2753 
L 3553 2753 
L 3553 4666 
L 4184 4666 
L 4184 0 
L 3553 0 
L 3553 2222 
L 1259 2222 
L 1259 0 
L 628 0 
L 628 4666 
z
" transform="scale(0.015625)"/>
       <path id="DejaVuSans-67" d="M 2906 1791 
Q 2906 2416 2648 2759 
Q 2391 3103 1925 3103 
Q 1463 3103 1205 2759 
Q 947 2416 947 1791 
Q 947 1169 1205 825 
Q 1463 481 1925 481 
Q 2391 481 2648 825 
Q 2906 1169 2906 1791 
z
M 3481 434 
Q 3481 -459 3084 -895 
Q 2688 -1331 1869 -1331 
Q 1566 -1331 1297 -1286 
Q 1028 -1241 775 -1147 
L 775 -588 
Q 1028 -725 1275 -790 
Q 1522 -856 1778 -856 
Q 2344 -856 2625 -561 
Q 2906 -266 2906 331 
L 2906 616 
Q 2728 306 2450 153 
Q 2172 0 1784 0 
Q 1141 0 747 490 
Q 353 981 353 1791 
Q 353 2603 747 3093 
Q 1141 3584 1784 3584 
Q 2172 3584 2450 3431 
Q 2728 3278 2906 2969 
L 2906 3500 
L 3481 3500 
L 3481 434 
z
" transform="scale(0.015625)"/>
       <path id="DejaVuSans-68" d="M 3513 2113 
L 3513 0 
L 2938 0 
L 2938 2094 
Q 2938 2591 2744 2837 
Q 2550 3084 2163 3084 
Q 1697 3084 1428 2787 
Q 1159 2491 1159 1978 
L 1159 0 
L 581 0 
L 581 4863 
L 1159 4863 
L 1159 2956 
Q 1366 3272 1645 3428 
Q 1925 3584 2291 3584 
Q 2894 3584 3203 3211 
Q 3513 2838 3513 2113 
z
" transform="scale(0.015625)"/>
      </defs>
      <use xlink:href="#DejaVuSans-48"/>
      <use xlink:href="#DejaVuSans-65" x="75.195312"/>
      <use xlink:href="#DejaVuSans-69" x="136.71875"/>
      <use xlink:href="#DejaVuSans-67" x="164.501953"/>
      <use xlink:href="#DejaVuSans-68" x="227.978516"/>
      <use xlink:href="#DejaVuSans-74" x="291.357422"/>
      <use xlink:href="#DejaVuSans-20" x="330.566406"/>
      <use xlink:href="#DejaVuSans-28" x="362.353516"/>
      <use xlink:href="#DejaVuSans-6d" x="401.367188"/>
      <use xlink:href="#DejaVuSans-29" x="498.779297"/>
     </g>
    </g>
   </g>
   <g id="line2d_16">
    <path d="M 73.832727 295.347686 
L 117.860543 295.139635 
L 134.247131 294.464678 
L 141.324706 293.988096 
L 151.762117 292.763981 
L 157.345787 292.038221 
L 162.52193 291.249561 
L 167.090221 290.410099 
L 170.157364 289.524672 
L 175.070152 288.605376 
L 178.473097 287.652211 
L 180.266217 286.674854 
L 186.273715 280.411546 
L 189.496261 277.116595 
L 196.997302 271.47986 
L 200.424879 268.0325 
L 202.683125 265.717325 
L 204.533843 263.385217 
L 207.162667 259.870119 
L 207.846951 258.691967 
L 209.917552 252.772184 
L 212.016771 240.811662 
L 212.379018 233.578252 
L 212.969117 228.73743 
L 214.770208 223.882102 
L 216.293455 222.667658 
L 239.457315 217.802651 
L 244.561369 216.583372 
L 258.155399 210.484571 
L 266.326958 205.597784 
L 267.945838 204.376091 
L 270.838377 199.479632 
L 272.213828 198.253096 
L 281.939063 193.351795 
L 284.049149 192.122844 
L 290.850329 187.214285 
L 292.159489 185.985328 
L 295.941706 181.069519 
L 298.262982 178.609189 
L 307.996911 168.760621 
L 310.917705 165.061669 
L 316.771248 157.661345 
L 317.759457 156.427544 
L 325.069594 150.256162 
L 331.594018 139.132685 
L 332.460512 137.896478 
L 337.344683 132.949211 
L 338.283264 131.713003 
L 340.25606 126.760893 
L 341.110961 125.524685 
L 347.072816 119.331539 
L 351.118024 114.377008 
L 354.746286 110.658698 
L 357.201593 108.18144 
L 362.212913 101.981029 
L 363.502511 95.780618 
L 371.012608 89.575379 
L 377.08024 83.370125 
L 381.193912 78.403501 
L 381.954268 77.162465 
L 383.846282 72.193418 
L 384.797541 70.952368 
L 389.822264 65.980915 
L 392.979244 62.255341 
L 395.048758 59.768411 
L 396.059064 57.283888 
L 397.000905 54.796958 
L 397.000905 54.796958 
" clip-path="url(#pbcd93ebaf4)" style="fill: none; stroke: #1f77b4; stroke-width: 1.5; stroke-linecap: square"/>
   </g>
   <g id="line2d_17">
    <path d="M 109.402925 295.488 
L 132.419044 294.76224 
L 138.769546 294.2784 
L 145.571111 293.43168 
L 153.369765 292.58496 
L 154.817917 292.34304 
L 157.358118 292.10112 
L 158.723179 291.8592 
L 162.806493 291.37536 
L 164.266515 291.01248 
L 165.809627 290.77056 
L 167.174688 290.40768 
L 168.62284 290.16576 
L 169.085774 289.68192 
L 172.088909 289.07712 
L 173.537061 288.71424 
L 176.184092 288.47232 
L 177.632244 288.10944 
L 178.000217 287.86752 
L 179.5552 287.38368 
L 182.225972 284.6016 
L 182.510854 284.23872 
L 182.878827 283.9968 
L 183.982746 282.66624 
L 183.080619 282.42432 
L 183.828435 281.69856 
L 185.288457 281.33568 
L 186.214324 280.368 
L 185.407158 280.12608 
L 185.870092 279.52128 
L 187.330113 279.27936 
L 187.982969 278.5536 
L 189.098758 277.46496 
L 189.941535 276.49728 
L 191.413427 276.25536 
L 192.244334 275.28768 
L 193.371993 274.19904 
L 193.941758 273.59424 
L 195.40178 273.35232 
L 196.529439 272.02176 
L 197.94198 270.6912 
L 198.131902 270.32832 
L 199.259561 269.23968 
L 200.114208 268.272 
L 200.968855 267.42528 
L 202.440747 267.18336 
L 203.093603 266.4576 
L 203.758328 265.8528 
L 202.856201 265.48992 
L 203.710848 264.6432 
L 204.565495 263.67552 
L 205.420142 262.8288 
L 206.286659 261.86112 
L 206.951384 261.25632 
L 206.049257 260.89344 
L 206.334139 260.53056 
L 206.713982 260.28864 
L 207.853512 258.95808 
L 208.720029 258.11136 
L 209.289793 257.50656 
L 208.387666 257.26464 
L 209.254183 256.29696 
L 209.539065 256.05504 
L 208.636938 255.69216 
L 209.503455 254.84544 
L 209.788337 254.48256 
L 208.88621 254.24064 
L 209.942649 253.03104 
L 210.227531 252.78912 
L 209.325404 252.5472 
L 209.907038 251.9424 
L 210.191921 251.70048 
L 210.381842 251.3376 
L 210.678595 251.09568 
L 209.776467 250.85376 
L 210.642984 249.88608 
L 211.224619 249.28128 
L 210.215661 249.03936 
L 210.797296 248.43456 
L 211.189009 248.07168 
L 210.286881 247.82976 
L 210.963477 247.104 
L 211.545112 246.4992 
L 210.642984 246.13632 
L 211.414541 245.41056 
L 211.699423 245.04768 
L 210.797296 244.80576 
L 211.094048 244.56384 
L 211.28397 244.20096 
L 211.960565 243.59616 
L 212.257318 243.23328 
L 211.450151 242.8704 
L 211.936825 242.38656 
L 212.233577 242.14464 
L 211.31958 241.78176 
L 212.008046 241.056 
L 212.304798 240.81408 
L 212.49472 240.4512 
L 211.592592 240.20928 
L 212.56594 239.2416 
L 211.663813 238.99968 
L 212.637161 237.91104 
L 211.735033 237.54816 
L 212.423499 236.94336 
L 212.910173 236.33856 
L 212.008046 236.09664 
L 212.886433 235.24992 
L 211.889345 234.88704 
L 213.159445 233.67744 
L 212.257318 233.31456 
L 213.135705 232.46784 
L 212.233577 232.10496 
L 213.123835 231.25824 
L 213.420587 230.89536 
L 212.411629 230.65344 
L 213.005134 230.04864 
L 213.693599 229.44384 
L 212.791472 229.08096 
L 213.871651 227.87136 
L 212.969523 227.62944 
L 213.563028 227.02464 
L 213.859781 226.78272 
L 212.957653 226.41984 
L 213.646119 225.69408 
L 214.239624 225.08928 
L 214.441415 224.84736 
L 213.539288 224.48448 
L 214.227754 223.87968 
L 215.331673 222.67008 
L 215.723386 222.3072 
L 217.230888 222.06528 
L 217.42081 221.7024 
L 223.237158 220.85568 
L 225.94354 220.4928 
L 234.074556 219.64608 
L 236.685978 219.2832 
L 236.98273 219.04128 
L 240.104566 218.31552 
L 240.401318 217.95264 
L 241.90882 217.71072 
L 242.110612 217.4688 
L 243.618114 217.10592 
L 243.926737 216.864 
L 245.434239 216.50112 
L 246.039614 215.89632 
L 246.348237 215.53344 
L 247.855739 215.29152 
L 248.152492 215.0496 
L 248.354283 214.68672 
L 248.757867 214.4448 
L 250.277239 214.08192 
L 251.191236 213.11424 
L 251.487989 212.87232 
L 253.007361 212.50944 
L 253.612736 211.90464 
L 255.025278 211.54176 
L 256.53278 211.29984 
L 256.841403 210.93696 
L 258.360775 210.69504 
L 258.764358 210.33216 
L 260.283731 209.96928 
L 260.889106 209.36448 
L 262.408478 209.0016 
L 263.322476 208.15488 
L 264.556966 206.82432 
L 266.076338 206.5824 
L 266.27813 206.21952 
L 267.203998 205.3728 
L 268.438488 204.04224 
L 267.53636 203.80032 
L 268.77085 202.46976 
L 269.708588 201.62304 
L 270.325833 200.89728 
L 269.423706 200.65536 
L 270.563235 199.44576 
L 271.18048 198.84096 
L 271.809595 198.23616 
L 273.328968 197.87328 
L 274.266705 196.9056 
L 275.786078 196.54272 
L 276.0947 196.17984 
L 277.732774 195.81696 
L 278.350019 195.21216 
L 279.881261 194.84928 
L 280.510377 194.24448 
L 282.029749 194.00256 
L 283.596602 192.30912 
L 283.917094 192.0672 
L 284.118886 191.70432 
L 285.068494 190.8576 
L 286.599736 190.49472 
L 287.442513 189.648 
L 287.751136 189.40608 
L 287.964798 189.0432 
L 288.807575 188.31744 
L 290.065805 186.98688 
L 291.597047 186.74496 
L 291.810709 186.38208 
L 292.760317 185.53536 
L 294.457741 183.72096 
L 294.778233 183.47904 
L 293.876106 183.11616 
L 295.039376 181.90656 
L 295.359868 181.66464 
L 295.57353 181.30176 
L 296.214515 180.69696 
L 296.84363 180.09216 
L 297.164123 179.85024 
L 297.377785 179.48736 
L 298.920897 179.24544 
L 299.775544 178.27776 
L 298.873417 178.03584 
L 300.47588 176.3424 
L 301.330527 175.61664 
L 301.757851 175.01184 
L 302.719328 174.16512 
L 304.440493 172.35072 
L 304.760985 172.1088 
L 304.974647 171.74592 
L 305.841164 171.02016 
L 306.054826 170.65728 
L 307.028174 169.6896 
L 307.562328 169.20576 
L 307.882821 168.96384 
L 308.108353 168.60096 
L 308.642507 168.11712 
L 309.829517 166.90752 
L 310.161879 166.6656 
L 310.375541 166.30272 
L 311.348889 165.456 
L 311.562551 165.09312 
L 311.894914 164.8512 
L 310.992786 164.48832 
L 312.405328 163.0368 
L 312.73769 162.79488 
L 312.951352 162.432 
L 313.604208 161.8272 
L 314.803087 160.6176 
L 313.90096 160.37568 
L 316.417421 157.71456 
L 317.070276 157.10976 
L 318.506558 155.65824 
L 318.82705 155.41632 
L 319.052582 155.05344 
L 319.598607 154.5696 
L 321.034888 153.11808 
L 321.580913 152.63424 
L 322.020107 152.02944 
L 323.586959 151.78752 
L 324.797709 150.57792 
L 326.459523 148.88448 
L 325.557395 148.64256 
L 325.782927 148.27968 
L 326.447653 147.67488 
L 327.551572 146.46528 
L 326.661315 146.22336 
L 327.765234 145.01376 
L 328.323128 144.52992 
L 328.655491 144.16704 
L 327.765234 143.80416 
L 328.429959 143.19936 
L 330.780238 140.78016 
L 331.444964 140.17536 
L 330.436005 139.93344 
L 332.453922 137.87712 
L 332.798155 137.6352 
L 333.011817 137.27232 
L 333.581581 136.78848 
L 335.492667 134.85312 
L 335.82503 134.6112 
L 336.050561 134.24832 
L 336.394794 134.0064 
L 336.620326 133.64352 
L 337.190091 133.15968 
L 339.101176 131.22432 
L 339.338578 130.9824 
L 338.436451 130.74048 
L 338.887515 130.13568 
L 339.56411 129.53088 
L 339.801512 129.28896 
L 338.899385 128.92608 
L 339.243618 128.68416 
L 339.469149 128.32128 
L 340.145745 127.71648 
L 339.255488 127.3536 
L 340.72738 125.90208 
L 339.837122 125.5392 
L 342.460414 122.87808 
L 342.804647 122.63616 
L 343.030179 122.27328 
L 343.599943 121.78944 
L 344.976875 120.33792 
L 346.448767 120.096 
L 346.792999 119.85408 
L 347.018531 119.4912 
L 347.362764 119.24928 
L 346.353806 119.00736 
L 348.537904 116.83008 
L 348.882136 116.58816 
L 349.119538 116.22528 
L 349.463771 115.98336 
L 349.689303 115.62048 
L 350.033536 115.37856 
L 349.024578 115.13664 
L 349.36881 114.77376 
L 350.959403 114.41088 
L 351.303636 114.16896 
L 351.541038 113.80608 
L 351.885271 113.56416 
L 352.122673 113.20128 
L 352.811139 112.59648 
L 360.028158 105.33888 
L 360.609793 104.85504 
L 359.719535 104.49216 
L 363.351785 100.86336 
L 362.342827 100.62144 
L 363.636667 99.29088 
L 362.74641 99.04896 
L 363.328045 98.3232 
L 364.040251 97.7184 
L 363.149993 97.35552 
L 364.087731 96.38784 
L 363.197474 96.14592 
L 363.434876 95.78304 
L 363.790979 95.54112 
L 364.372613 94.81536 
L 365.084819 94.21056 
L 365.440922 93.84768 
L 366.924684 93.4848 
L 367.63689 92.88 
L 367.992993 92.51712 
L 367.102736 92.15424 
L 368.586498 91.91232 
L 368.954471 91.6704 
L 369.191873 91.30752 
L 369.547976 91.0656 
L 369.785378 90.70272 
L 370.141481 90.4608 
L 370.378883 90.09792 
L 370.734985 89.856 
L 370.972387 89.49312 
L 371.684593 88.88832 
L 376.954916 83.56608 
L 377.678992 82.96128 
L 377.916394 82.5984 
L 378.64047 81.9936 
L 381.287502 79.45344 
L 381.892877 78.72768 
L 381.00262 78.48576 
L 381.240021 78.12288 
L 381.975968 77.51808 
L 382.581342 76.79232 
L 382.937445 76.42944 
L 382.047188 76.18752 
L 382.28459 75.82464 
L 382.652563 75.58272 
L 382.901835 75.21984 
L 383.257938 74.97792 
L 382.367681 74.61504 
L 384.801051 72.19584 
L 383.910793 71.83296 
L 384.397467 71.34912 
L 386.023671 70.98624 
L 387.364992 69.77664 
L 391.032852 66.02688 
L 390.142594 65.664 
L 392.231731 63.60768 
L 391.341474 63.2448 
L 391.721317 63.00288 
L 391.958719 62.64 
L 392.326692 62.39808 
L 392.575964 62.0352 
L 392.943937 61.79328 
L 393.561182 61.06752 
L 396.042033 58.64832 
L 395.151775 58.28544 
L 397.252783 56.22912 
L 396.362525 55.86624 
L 398.487273 53.80992 
L 397.466444 53.568 
L 397.466444 53.568 
" clip-path="url(#pbcd93ebaf4)" style="fill: none; stroke: #ff7f0e; stroke-width: 1.5; stroke-linecap: square"/>
   </g>
   <g id="patch_3">
    <path d="M 57.6 307.584 
L 57.6 41.472 
" style="fill: none; stroke: #000000; stroke-width: 0.8; stroke-linejoin: miter; stroke-linecap: square"/>
   </g>
   <g id="patch_4">
    <path d="M 414.72 307.584 
L 414.72 41.472 
" style="fill: none; stroke: #000000; stroke-width: 0.8; stroke-linejoin: miter; stroke-linecap: square"/>
   </g>
   <g id="patch_5">
    <path d="M 57.6 307.584 
L 414.72 307.584 
" style="fill: none; stroke: #000000; stroke-width: 0.8; stroke-linejoin: miter; stroke-linecap: square"/>
   </g>
   <g id="patch_6">
    <path d="M 57.6 41.472 
L 414.72 41.472 
" style="fill: none; stroke: #000000; stroke-width: 0.8; stroke-linejoin: miter; stroke-linecap: square"/>
   </g>
   <g id="text_18">
    <!-- Potential Temperature Profile at 04:50 -->
    <g transform="translate(122.274375 11.472) scale(0.12 -0.12)">
     <defs>
      <path id="DejaVuSans-54" d="M -19 4666 
L 3928 4666 
L 3928 4134 
L 2272 4134 
L 2272 0 
L 1638 0 
L 1638 4134 
L -19 4134 
L -19 4666 
z
" transform="scale(0.015625)"/>
      <path id="DejaVuSans-66" d="M 2375 4863 
L 2375 4384 
L 1825 4384 
Q 1516 4384 1395 4259 
Q 1275 4134 1275 3809 
L 1275 3500 
L 2222 3500 
L 2222 3053 
L 1275 3053 
L 1275 0 
L 697 0 
L 697 3053 
L 147 3053 
L 147 3500 
L 697 3500 
L 697 3744 
Q 697 4328 969 4595 
Q 1241 4863 1831 4863 
L 2375 4863 
z
" transform="scale(0.015625)"/>
      <path id="DejaVuSans-34" d="M 2419 4116 
L 825 1625 
L 2419 1625 
L 2419 4116 
z
M 2253 4666 
L 3047 4666 
L 3047 1625 
L 3713 1625 
L 3713 1100 
L 3047 1100 
L 3047 0 
L 2419 0 
L 2419 1100 
L 313 1100 
L 313 1709 
L 2253 4666 
z
" transform="scale(0.015625)"/>
      <path id="DejaVuSans-3a" d="M 750 794 
L 1409 794 
L 1409 0 
L 750 0 
L 750 794 
z
M 750 3309 
L 1409 3309 
L 1409 2516 
L 750 2516 
L 750 3309 
z
" transform="scale(0.015625)"/>
     </defs>
     <use xlink:href="#DejaVuSans-50"/>
     <use xlink:href="#DejaVuSans-6f" x="56.677734"/>
     <use xlink:href="#DejaVuSans-74" x="117.859375"/>
     <use xlink:href="#DejaVuSans-65" x="157.068359"/>
     <use xlink:href="#DejaVuSans-6e" x="218.591797"/>
     <use xlink:href="#DejaVuSans-74" x="281.970703"/>
     <use xlink:href="#DejaVuSans-69" x="321.179688"/>
     <use xlink:href="#DejaVuSans-61" x="348.962891"/>
     <use xlink:href="#DejaVuSans-6c" x="410.242188"/>
     <use xlink:href="#DejaVuSans-20" x="438.025391"/>
     <use xlink:href="#DejaVuSans-54" x="469.8125"/>
     <use xlink:href="#DejaVuSans-65" x="513.896484"/>
     <use xlink:href="#DejaVuSans-6d" x="575.419922"/>
     <use xlink:href="#DejaVuSans-70" x="672.832031"/>
     <use xlink:href="#DejaVuSans-65" x="736.308594"/>
     <use xlink:href="#DejaVuSans-72" x="797.832031"/>
     <use xlink:href="#DejaVuSans-61" x="838.945312"/>
     <use xlink:href="#DejaVuSans-74" x="900.224609"/>
     <use xlink:href="#DejaVuSans-75" x="939.433594"/>
     <use xlink:href="#DejaVuSans-72" x="1002.8125"/>
     <use xlink:href="#DejaVuSans-65" x="1041.675781"/>
     <use xlink:href="#DejaVuSans-20" x="1103.199219"/>
     <use xlink:href="#DejaVuSans-50" x="1134.986328"/>
     <use xlink:href="#DejaVuSans-72" x="1193.539062"/>
     <use xlink:href="#DejaVuSans-6f" x="1232.402344"/>
     <use xlink:href="#DejaVuSans-66" x="1293.583984"/>
     <use xlink:href="#DejaVuSans-69" x="1328.789062"/>
     <use xlink:href="#DejaVuSans-6c" x="1356.572266"/>
     <use xlink:href="#DejaVuSans-65" x="1384.355469"/>
     <use xlink:href="#DejaVuSans-20" x="1445.878906"/>
     <use xlink:href="#DejaVuSans-61" x="1477.666016"/>
     <use xlink:href="#DejaVuSans-74" x="1538.945312"/>
     <use xlink:href="#DejaVuSans-20" x="1578.154297"/>
     <use xlink:href="#DejaVuSans-30" x="1609.941406"/>
     <use xlink:href="#DejaVuSans-34" x="1673.564453"/>
     <use xlink:href="#DejaVuSans-3a" x="1737.1875"/>
     <use xlink:href="#DejaVuSans-35" x="1770.878906"/>
     <use xlink:href="#DejaVuSans-30" x="1834.501953"/>
    </g>
   </g>
   <g id="legend_1">
    <g id="patch_7">
     <path d="M 120.894375 37.538925 
L 351.425625 37.538925 
Q 353.425625 37.538925 353.425625 35.538925 
L 353.425625 21.8608 
Q 353.425625 19.8608 351.425625 19.8608 
L 120.894375 19.8608 
Q 118.894375 19.8608 118.894375 21.8608 
L 118.894375 35.538925 
Q 118.894375 37.538925 120.894375 37.538925 
z
" style="fill: #ffffff; opacity: 0.8; stroke: #cccccc; stroke-linejoin: miter"/>
    </g>
    <g id="line2d_18">
     <path d="M 122.894375 27.959238 
L 132.894375 27.959238 
L 142.894375 27.959238 
" style="fill: none; stroke: #1f77b4; stroke-width: 1.5; stroke-linecap: square"/>
    </g>
    <g id="text_19">
     <!-- Model -->
     <g transform="translate(150.894375 31.459238) scale(0.1 -0.1)">
      <defs>
       <path id="DejaVuSans-4d" d="M 628 4666 
L 1569 4666 
L 2759 1491 
L 3956 4666 
L 4897 4666 
L 4897 0 
L 4281 0 
L 4281 4097 
L 3078 897 
L 2444 897 
L 1241 4097 
L 1241 0 
L 628 0 
L 628 4666 
z
" transform="scale(0.015625)"/>
       <path id="DejaVuSans-64" d="M 2906 2969 
L 2906 4863 
L 3481 4863 
L 3481 0 
L 2906 0 
L 2906 525 
Q 2725 213 2448 61 
Q 2172 -91 1784 -91 
Q 1150 -91 751 415 
Q 353 922 353 1747 
Q 353 2572 751 3078 
Q 1150 3584 1784 3584 
Q 2172 3584 2448 3432 
Q 2725 3281 2906 2969 
z
M 947 1747 
Q 947 1113 1208 752 
Q 1469 391 1925 391 
Q 2381 391 2643 752 
Q 2906 1113 2906 1747 
Q 2906 2381 2643 2742 
Q 2381 3103 1925 3103 
Q 1469 3103 1208 2742 
Q 947 2381 947 1747 
z
" transform="scale(0.015625)"/>
      </defs>
      <use xlink:href="#DejaVuSans-4d"/>
      <use xlink:href="#DejaVuSans-6f" x="86.279297"/>
      <use xlink:href="#DejaVuSans-64" x="147.460938"/>
      <use xlink:href="#DejaVuSans-65" x="210.9375"/>
      <use xlink:href="#DejaVuSans-6c" x="272.460938"/>
     </g>
    </g>
    <g id="line2d_19">
     <path d="M 200.920937 27.959238 
L 210.920937 27.959238 
L 220.920937 27.959238 
" style="fill: none; stroke: #ff7f0e; stroke-width: 1.5; stroke-linecap: square"/>
    </g>
    <g id="text_20">
     <!-- Met Office Observations -->
     <g transform="translate(228.920937 31.459238) scale(0.1 -0.1)">
      <defs>
       <path id="DejaVuSans-4f" d="M 2522 4238 
Q 1834 4238 1429 3725 
Q 1025 3213 1025 2328 
Q 1025 1447 1429 934 
Q 1834 422 2522 422 
Q 3209 422 3611 934 
Q 4013 1447 4013 2328 
Q 4013 3213 3611 3725 
Q 3209 4238 2522 4238 
z
M 2522 4750 
Q 3503 4750 4090 4092 
Q 4678 3434 4678 2328 
Q 4678 1225 4090 567 
Q 3503 -91 2522 -91 
Q 1538 -91 948 565 
Q 359 1222 359 2328 
Q 359 3434 948 4092 
Q 1538 4750 2522 4750 
z
" transform="scale(0.015625)"/>
       <path id="DejaVuSans-63" d="M 3122 3366 
L 3122 2828 
Q 2878 2963 2633 3030 
Q 2388 3097 2138 3097 
Q 1578 3097 1268 2742 
Q 959 2388 959 1747 
Q 959 1106 1268 751 
Q 1578 397 2138 397 
Q 2388 397 2633 464 
Q 2878 531 3122 666 
L 3122 134 
Q 2881 22 2623 -34 
Q 2366 -91 2075 -91 
Q 1284 -91 818 406 
Q 353 903 353 1747 
Q 353 2603 823 3093 
Q 1294 3584 2113 3584 
Q 2378 3584 2631 3529 
Q 2884 3475 3122 3366 
z
" transform="scale(0.015625)"/>
       <path id="DejaVuSans-62" d="M 3116 1747 
Q 3116 2381 2855 2742 
Q 2594 3103 2138 3103 
Q 1681 3103 1420 2742 
Q 1159 2381 1159 1747 
Q 1159 1113 1420 752 
Q 1681 391 2138 391 
Q 2594 391 2855 752 
Q 3116 1113 3116 1747 
z
M 1159 2969 
Q 1341 3281 1617 3432 
Q 1894 3584 2278 3584 
Q 2916 3584 3314 3078 
Q 3713 2572 3713 1747 
Q 3713 922 3314 415 
Q 2916 -91 2278 -91 
Q 1894 -91 1617 61 
Q 1341 213 1159 525 
L 1159 0 
L 581 0 
L 581 4863 
L 1159 4863 
L 1159 2969 
z
" transform="scale(0.015625)"/>
       <path id="DejaVuSans-73" d="M 2834 3397 
L 2834 2853 
Q 2591 2978 2328 3040 
Q 2066 3103 1784 3103 
Q 1356 3103 1142 2972 
Q 928 2841 928 2578 
Q 928 2378 1081 2264 
Q 1234 2150 1697 2047 
L 1894 2003 
Q 2506 1872 2764 1633 
Q 3022 1394 3022 966 
Q 3022 478 2636 193 
Q 2250 -91 1575 -91 
Q 1294 -91 989 -36 
Q 684 19 347 128 
L 347 722 
Q 666 556 975 473 
Q 1284 391 1588 391 
Q 1994 391 2212 530 
Q 2431 669 2431 922 
Q 2431 1156 2273 1281 
Q 2116 1406 1581 1522 
L 1381 1569 
Q 847 1681 609 1914 
Q 372 2147 372 2553 
Q 372 3047 722 3315 
Q 1072 3584 1716 3584 
Q 2034 3584 2315 3537 
Q 2597 3491 2834 3397 
z
" transform="scale(0.015625)"/>
       <path id="DejaVuSans-76" d="M 191 3500 
L 800 3500 
L 1894 563 
L 2988 3500 
L 3597 3500 
L 2284 0 
L 1503 0 
L 191 3500 
z
" transform="scale(0.015625)"/>
      </defs>
      <use xlink:href="#DejaVuSans-4d"/>
      <use xlink:href="#DejaVuSans-65" x="86.279297"/>
      <use xlink:href="#DejaVuSans-74" x="147.802734"/>
      <use xlink:href="#DejaVuSans-20" x="187.011719"/>
      <use xlink:href="#DejaVuSans-4f" x="218.798828"/>
      <use xlink:href="#DejaVuSans-66" x="297.509766"/>
      <use xlink:href="#DejaVuSans-66" x="332.714844"/>
      <use xlink:href="#DejaVuSans-69" x="367.919922"/>
      <use xlink:href="#DejaVuSans-63" x="395.703125"/>
      <use xlink:href="#DejaVuSans-65" x="450.683594"/>
      <use xlink:href="#DejaVuSans-20" x="512.207031"/>
      <use xlink:href="#DejaVuSans-4f" x="543.994141"/>
      <use xlink:href="#DejaVuSans-62" x="622.705078"/>
      <use xlink:href="#DejaVuSans-73" x="686.181641"/>
      <use xlink:href="#DejaVuSans-65" x="738.28125"/>
      <use xlink:href="#DejaVuSans-72" x="799.804688"/>
      <use xlink:href="#DejaVuSans-76" x="840.917969"/>
      <use xlink:href="#DejaVuSans-61" x="900.097656"/>
      <use xlink:href="#DejaVuSans-74" x="961.376953"/>
      <use xlink:href="#DejaVuSans-69" x="1000.585938"/>
      <use xlink:href="#DejaVuSans-6f" x="1028.369141"/>
      <use xlink:href="#DejaVuSans-6e" x="1089.550781"/>
      <use xlink:href="#DejaVuSans-73" x="1152.929688"/>
     </g>
    </g>
   </g>
  </g>
 </g>
 <defs>
  <clipPath id="pbcd93ebaf4">
   <rect x="57.6" y="41.472" width="357.12" height="266.112"/>
  </clipPath>
 </defs>
</svg>
