<?xml version="1.0" encoding="utf-8" standalone="no"?>
<!DOCTYPE svg PUBLIC "-//W3C//DTD SVG 1.1//EN"
  "http://www.w3.org/Graphics/SVG/1.1/DTD/svg11.dtd">
<svg xmlns:xlink="http://www.w3.org/1999/xlink" width="460.8pt" height="345.6pt" viewBox="0 0 460.8 345.6" xmlns="http://www.w3.org/2000/svg" version="1.1">
 <metadata>
  <rdf:RDF xmlns:dc="http://purl.org/dc/elements/1.1/" xmlns:cc="http://creativecommons.org/ns#" xmlns:rdf="http://www.w3.org/1999/02/22-rdf-syntax-ns#">
   <cc:Work>
    <dc:type rdf:resource="http://purl.org/dc/dcmitype/StillImage"/>
    <dc:date>2025-12-09T14:16:34.772332</dc:date>
    <dc:format>image/svg+xml</dc:format>
    <dc:creator>
     <cc:Agent>
      <dc:title>Matplotlib v3.10.6, https://matplotlib.org/</dc:title>
     </cc:Agent>
    </dc:creator>
   </cc:Work>
  </rdf:RDF>
 </metadata>
 <defs>
  <style type="text/css">*{stroke-linejoin: round; stroke-linecap: butt}</style>
 </defs>
 <g id="figure_1">
  <g id="patch_1">
   <path d="M 0 345.6 
L 460.8 345.6 
L 460.8 0 
L 0 0 
z
" style="fill: #ffffff"/>
  </g>
  <g id="axes_1">
   <g id="patch_2">
    <path d="M 57.6 307.584 
L 414.72 307.584 
L 414.72 41.472 
L 57.6 41.472 
z
" style="fill: #ffffff"/>
   </g>
   <g id="matplotlib.axis_1">
    <g id="xtick_1">
     <g id="line2d_1">
      <defs>
       <path id="m13b2d18647" d="M 0 0 
L 0 3.5 
" style="stroke: #000000; stroke-width: 0.8"/>
      </defs>
      <g>
       <use xlink:href="#m13b2d18647" x="115.17837" y="307.584" style="stroke: #000000; stroke-width: 0.8"/>
      </g>
     </g>
     <g id="text_1">
      <!-- 275 -->
      <g transform="translate(105.63462 322.182437) scale(0.1 -0.1)">
       <defs>
        <path id="DejaVuSans-32" d="M 1228 531 
L 3431 531 
L 3431 0 
L 469 0 
L 469 531 
Q 828 903 1448 1529 
Q 2069 2156 2228 2338 
Q 2531 2678 2651 2914 
Q 2772 3150 2772 3378 
Q 2772 3750 2511 3984 
Q 2250 4219 1831 4219 
Q 1534 4219 1204 4116 
Q 875 4013 500 3803 
L 500 4441 
Q 881 4594 1212 4672 
Q 1544 4750 1819 4750 
Q 2544 4750 2975 4387 
Q 3406 4025 3406 3419 
Q 3406 3131 3298 2873 
Q 3191 2616 2906 2266 
Q 2828 2175 2409 1742 
Q 1991 1309 1228 531 
z
" transform="scale(0.015625)"/>
        <path id="DejaVuSans-37" d="M 525 4666 
L 3525 4666 
L 3525 4397 
L 1831 0 
L 1172 0 
L 2766 4134 
L 525 4134 
L 525 4666 
z
" transform="scale(0.015625)"/>
        <path id="DejaVuSans-35" d="M 691 4666 
L 3169 4666 
L 3169 4134 
L 1269 4134 
L 1269 2991 
Q 1406 3038 1543 3061 
Q 1681 3084 1819 3084 
Q 2600 3084 3056 2656 
Q 3513 2228 3513 1497 
Q 3513 744 3044 326 
Q 2575 -91 1722 -91 
Q 1428 -91 1123 -41 
Q 819 9 494 109 
L 494 744 
Q 775 591 1075 516 
Q 1375 441 1709 441 
Q 2250 441 2565 725 
Q 2881 1009 2881 1497 
Q 2881 1984 2565 2268 
Q 2250 2553 1709 2553 
Q 1456 2553 1204 2497 
Q 953 2441 691 2322 
L 691 4666 
z
" transform="scale(0.015625)"/>
       </defs>
       <use xlink:href="#DejaVuSans-32"/>
       <use xlink:href="#DejaVuSans-37" transform="translate(63.623047 0)"/>
       <use xlink:href="#DejaVuSans-35" transform="translate(127.246094 0)"/>
      </g>
     </g>
    </g>
    <g id="xtick_2">
     <g id="line2d_2">
      <g>
       <use xlink:href="#m13b2d18647" x="188.408342" y="307.584" style="stroke: #000000; stroke-width: 0.8"/>
      </g>
     </g>
     <g id="text_2">
      <!-- 280 -->
      <g transform="translate(178.864592 322.182437) scale(0.1 -0.1)">
       <defs>
        <path id="DejaVuSans-38" d="M 2034 2216 
Q 1584 2216 1326 1975 
Q 1069 1734 1069 1313 
Q 1069 891 1326 650 
Q 1584 409 2034 409 
Q 2484 409 2743 651 
Q 3003 894 3003 1313 
Q 3003 1734 2745 1975 
Q 2488 2216 2034 2216 
z
M 1403 2484 
Q 997 2584 770 2862 
Q 544 3141 544 3541 
Q 544 4100 942 4425 
Q 1341 4750 2034 4750 
Q 2731 4750 3128 4425 
Q 3525 4100 3525 3541 
Q 3525 3141 3298 2862 
Q 3072 2584 2669 2484 
Q 3125 2378 3379 2068 
Q 3634 1759 3634 1313 
Q 3634 634 3220 271 
Q 2806 -91 2034 -91 
Q 1263 -91 848 271 
Q 434 634 434 1313 
Q 434 1759 690 2068 
Q 947 2378 1403 2484 
z
M 1172 3481 
Q 1172 3119 1398 2916 
Q 1625 2713 2034 2713 
Q 2441 2713 2670 2916 
Q 2900 3119 2900 3481 
Q 2900 3844 2670 4047 
Q 2441 4250 2034 4250 
Q 1625 4250 1398 4047 
Q 1172 3844 1172 3481 
z
" transform="scale(0.015625)"/>
        <path id="DejaVuSans-30" d="M 2034 4250 
Q 1547 4250 1301 3770 
Q 1056 3291 1056 2328 
Q 1056 1369 1301 889 
Q 1547 409 2034 409 
Q 2525 409 2770 889 
Q 3016 1369 3016 2328 
Q 3016 3291 2770 3770 
Q 2525 4250 2034 4250 
z
M 2034 4750 
Q 2819 4750 3233 4129 
Q 3647 3509 3647 2328 
Q 3647 1150 3233 529 
Q 2819 -91 2034 -91 
Q 1250 -91 836 529 
Q 422 1150 422 2328 
Q 422 3509 836 4129 
Q 1250 4750 2034 4750 
z
" transform="scale(0.015625)"/>
       </defs>
       <use xlink:href="#DejaVuSans-32"/>
       <use xlink:href="#DejaVuSans-38" transform="translate(63.623047 0)"/>
       <use xlink:href="#DejaVuSans-30" transform="translate(127.246094 0)"/>
      </g>
     </g>
    </g>
    <g id="xtick_3">
     <g id="line2d_3">
      <g>
       <use xlink:href="#m13b2d18647" x="261.638315" y="307.584" style="stroke: #000000; stroke-width: 0.8"/>
      </g>
     </g>
     <g id="text_3">
      <!-- 285 -->
      <g transform="translate(252.094565 322.182437) scale(0.1 -0.1)">
       <use xlink:href="#DejaVuSans-32"/>
       <use xlink:href="#DejaVuSans-38" transform="translate(63.623047 0)"/>
       <use xlink:href="#DejaVuSans-35" transform="translate(127.246094 0)"/>
      </g>
     </g>
    </g>
    <g id="xtick_4">
     <g id="line2d_4">
      <g>
       <use xlink:href="#m13b2d18647" x="334.868287" y="307.584" style="stroke: #000000; stroke-width: 0.8"/>
      </g>
     </g>
     <g id="text_4">
      <!-- 290 -->
      <g transform="translate(325.324537 322.182437) scale(0.1 -0.1)">
       <defs>
        <path id="DejaVuSans-39" d="M 703 97 
L 703 672 
Q 941 559 1184 500 
Q 1428 441 1663 441 
Q 2288 441 2617 861 
Q 2947 1281 2994 2138 
Q 2813 1869 2534 1725 
Q 2256 1581 1919 1581 
Q 1219 1581 811 2004 
Q 403 2428 403 3163 
Q 403 3881 828 4315 
Q 1253 4750 1959 4750 
Q 2769 4750 3195 4129 
Q 3622 3509 3622 2328 
Q 3622 1225 3098 567 
Q 2575 -91 1691 -91 
Q 1453 -91 1209 -44 
Q 966 3 703 97 
z
M 1959 2075 
Q 2384 2075 2632 2365 
Q 2881 2656 2881 3163 
Q 2881 3666 2632 3958 
Q 2384 4250 1959 4250 
Q 1534 4250 1286 3958 
Q 1038 3666 1038 3163 
Q 1038 2656 1286 2365 
Q 1534 2075 1959 2075 
z
" transform="scale(0.015625)"/>
       </defs>
       <use xlink:href="#DejaVuSans-32"/>
       <use xlink:href="#DejaVuSans-39" transform="translate(63.623047 0)"/>
       <use xlink:href="#DejaVuSans-30" transform="translate(127.246094 0)"/>
      </g>
     </g>
    </g>
    <g id="xtick_5">
     <g id="line2d_5">
      <g>
       <use xlink:href="#m13b2d18647" x="408.09826" y="307.584" style="stroke: #000000; stroke-width: 0.8"/>
      </g>
     </g>
     <g id="text_5">
      <!-- 295 -->
      <g transform="translate(398.55451 322.182437) scale(0.1 -0.1)">
       <use xlink:href="#DejaVuSans-32"/>
       <use xlink:href="#DejaVuSans-39" transform="translate(63.623047 0)"/>
       <use xlink:href="#DejaVuSans-35" transform="translate(127.246094 0)"/>
      </g>
     </g>
    </g>
    <g id="text_6">
     <!-- Potential temperature (K) -->
     <g transform="translate(172.474844 335.860562) scale(0.1 -0.1)">
      <defs>
       <path id="DejaVuSans-50" d="M 1259 4147 
L 1259 2394 
L 2053 2394 
Q 2494 2394 2734 2622 
Q 2975 2850 2975 3272 
Q 2975 3691 2734 3919 
Q 2494 4147 2053 4147 
L 1259 4147 
z
M 628 4666 
L 2053 4666 
Q 2838 4666 3239 4311 
Q 3641 3956 3641 3272 
Q 3641 2581 3239 2228 
Q 2838 1875 2053 1875 
L 1259 1875 
L 1259 0 
L 628 0 
L 628 4666 
z
" transform="scale(0.015625)"/>
       <path id="DejaVuSans-6f" d="M 1959 3097 
Q 1497 3097 1228 2736 
Q 959 2375 959 1747 
Q 959 1119 1226 758 
Q 1494 397 1959 397 
Q 2419 397 2687 759 
Q 2956 1122 2956 1747 
Q 2956 2369 2687 2733 
Q 2419 3097 1959 3097 
z
M 1959 3584 
Q 2709 3584 3137 3096 
Q 3566 2609 3566 1747 
Q 3566 888 3137 398 
Q 2709 -91 1959 -91 
Q 1206 -91 779 398 
Q 353 888 353 1747 
Q 353 2609 779 3096 
Q 1206 3584 1959 3584 
z
" transform="scale(0.015625)"/>
       <path id="DejaVuSans-74" d="M 1172 4494 
L 1172 3500 
L 2356 3500 
L 2356 3053 
L 1172 3053 
L 1172 1153 
Q 1172 725 1289 603 
Q 1406 481 1766 481 
L 2356 481 
L 2356 0 
L 1766 0 
Q 1100 0 847 248 
Q 594 497 594 1153 
L 594 3053 
L 172 3053 
L 172 3500 
L 594 3500 
L 594 4494 
L 1172 4494 
z
" transform="scale(0.015625)"/>
       <path id="DejaVuSans-65" d="M 3597 1894 
L 3597 1613 
L 953 1613 
Q 991 1019 1311 708 
Q 1631 397 2203 397 
Q 2534 397 2845 478 
Q 3156 559 3463 722 
L 3463 178 
Q 3153 47 2828 -22 
Q 2503 -91 2169 -91 
Q 1331 -91 842 396 
Q 353 884 353 1716 
Q 353 2575 817 3079 
Q 1281 3584 2069 3584 
Q 2775 3584 3186 3129 
Q 3597 2675 3597 1894 
z
M 3022 2063 
Q 3016 2534 2758 2815 
Q 2500 3097 2075 3097 
Q 1594 3097 1305 2825 
Q 1016 2553 972 2059 
L 3022 2063 
z
" transform="scale(0.015625)"/>
       <path id="DejaVuSans-6e" d="M 3513 2113 
L 3513 0 
L 2938 0 
L 2938 2094 
Q 2938 2591 2744 2837 
Q 2550 3084 2163 3084 
Q 1697 3084 1428 2787 
Q 1159 2491 1159 1978 
L 1159 0 
L 581 0 
L 581 3500 
L 1159 3500 
L 1159 2956 
Q 1366 3272 1645 3428 
Q 1925 3584 2291 3584 
Q 2894 3584 3203 3211 
Q 3513 2838 3513 2113 
z
" transform="scale(0.015625)"/>
       <path id="DejaVuSans-69" d="M 603 3500 
L 1178 3500 
L 1178 0 
L 603 0 
L 603 3500 
z
M 603 4863 
L 1178 4863 
L 1178 4134 
L 603 4134 
L 603 4863 
z
" transform="scale(0.015625)"/>
       <path id="DejaVuSans-61" d="M 2194 1759 
Q 1497 1759 1228 1600 
Q 959 1441 959 1056 
Q 959 750 1161 570 
Q 1363 391 1709 391 
Q 2188 391 2477 730 
Q 2766 1069 2766 1631 
L 2766 1759 
L 2194 1759 
z
M 3341 1997 
L 3341 0 
L 2766 0 
L 2766 531 
Q 2569 213 2275 61 
Q 1981 -91 1556 -91 
Q 1019 -91 701 211 
Q 384 513 384 1019 
Q 384 1609 779 1909 
Q 1175 2209 1959 2209 
L 2766 2209 
L 2766 2266 
Q 2766 2663 2505 2880 
Q 2244 3097 1772 3097 
Q 1472 3097 1187 3025 
Q 903 2953 641 2809 
L 641 3341 
Q 956 3463 1253 3523 
Q 1550 3584 1831 3584 
Q 2591 3584 2966 3190 
Q 3341 2797 3341 1997 
z
" transform="scale(0.015625)"/>
       <path id="DejaVuSans-6c" d="M 603 4863 
L 1178 4863 
L 1178 0 
L 603 0 
L 603 4863 
z
" transform="scale(0.015625)"/>
       <path id="DejaVuSans-20" transform="scale(0.015625)"/>
       <path id="DejaVuSans-6d" d="M 3328 2828 
Q 3544 3216 3844 3400 
Q 4144 3584 4550 3584 
Q 5097 3584 5394 3201 
Q 5691 2819 5691 2113 
L 5691 0 
L 5113 0 
L 5113 2094 
Q 5113 2597 4934 2840 
Q 4756 3084 4391 3084 
Q 3944 3084 3684 2787 
Q 3425 2491 3425 1978 
L 3425 0 
L 2847 0 
L 2847 2094 
Q 2847 2600 2669 2842 
Q 2491 3084 2119 3084 
Q 1678 3084 1418 2786 
Q 1159 2488 1159 1978 
L 1159 0 
L 581 0 
L 581 3500 
L 1159 3500 
L 1159 2956 
Q 1356 3278 1631 3431 
Q 1906 3584 2284 3584 
Q 2666 3584 2933 3390 
Q 3200 3197 3328 2828 
z
" transform="scale(0.015625)"/>
       <path id="DejaVuSans-70" d="M 1159 525 
L 1159 -1331 
L 581 -1331 
L 581 3500 
L 1159 3500 
L 1159 2969 
Q 1341 3281 1617 3432 
Q 1894 3584 2278 3584 
Q 2916 3584 3314 3078 
Q 3713 2572 3713 1747 
Q 3713 922 3314 415 
Q 2916 -91 2278 -91 
Q 1894 -91 1617 61 
Q 1341 213 1159 525 
z
M 3116 1747 
Q 3116 2381 2855 2742 
Q 2594 3103 2138 3103 
Q 1681 3103 1420 2742 
Q 1159 2381 1159 1747 
Q 1159 1113 1420 752 
Q 1681 391 2138 391 
Q 2594 391 2855 752 
Q 3116 1113 3116 1747 
z
" transform="scale(0.015625)"/>
       <path id="DejaVuSans-72" d="M 2631 2963 
Q 2534 3019 2420 3045 
Q 2306 3072 2169 3072 
Q 1681 3072 1420 2755 
Q 1159 2438 1159 1844 
L 1159 0 
L 581 0 
L 581 3500 
L 1159 3500 
L 1159 2956 
Q 1341 3275 1631 3429 
Q 1922 3584 2338 3584 
Q 2397 3584 2469 3576 
Q 2541 3569 2628 3553 
L 2631 2963 
z
" transform="scale(0.015625)"/>
       <path id="DejaVuSans-75" d="M 544 1381 
L 544 3500 
L 1119 3500 
L 1119 1403 
Q 1119 906 1312 657 
Q 1506 409 1894 409 
Q 2359 409 2629 706 
Q 2900 1003 2900 1516 
L 2900 3500 
L 3475 3500 
L 3475 0 
L 2900 0 
L 2900 538 
Q 2691 219 2414 64 
Q 2138 -91 1772 -91 
Q 1169 -91 856 284 
Q 544 659 544 1381 
z
M 1991 3584 
L 1991 3584 
z
" transform="scale(0.015625)"/>
       <path id="DejaVuSans-28" d="M 1984 4856 
Q 1566 4138 1362 3434 
Q 1159 2731 1159 2009 
Q 1159 1288 1364 580 
Q 1569 -128 1984 -844 
L 1484 -844 
Q 1016 -109 783 600 
Q 550 1309 550 2009 
Q 550 2706 781 3412 
Q 1013 4119 1484 4856 
L 1984 4856 
z
" transform="scale(0.015625)"/>
       <path id="DejaVuSans-4b" d="M 628 4666 
L 1259 4666 
L 1259 2694 
L 3353 4666 
L 4166 4666 
L 1850 2491 
L 4331 0 
L 3500 0 
L 1259 2247 
L 1259 0 
L 628 0 
L 628 4666 
z
" transform="scale(0.015625)"/>
       <path id="DejaVuSans-29" d="M 513 4856 
L 1013 4856 
Q 1481 4119 1714 3412 
Q 1947 2706 1947 2009 
Q 1947 1309 1714 600 
Q 1481 -109 1013 -844 
L 513 -844 
Q 928 -128 1133 580 
Q 1338 1288 1338 2009 
Q 1338 2731 1133 3434 
Q 928 4138 513 4856 
z
" transform="scale(0.015625)"/>
      </defs>
      <use xlink:href="#DejaVuSans-50"/>
      <use xlink:href="#DejaVuSans-6f" transform="translate(56.677734 0)"/>
      <use xlink:href="#DejaVuSans-74" transform="translate(117.859375 0)"/>
      <use xlink:href="#DejaVuSans-65" transform="translate(157.068359 0)"/>
      <use xlink:href="#DejaVuSans-6e" transform="translate(218.591797 0)"/>
      <use xlink:href="#DejaVuSans-74" transform="translate(281.970703 0)"/>
      <use xlink:href="#DejaVuSans-69" transform="translate(321.179688 0)"/>
      <use xlink:href="#DejaVuSans-61" transform="translate(348.962891 0)"/>
      <use xlink:href="#DejaVuSans-6c" transform="translate(410.242188 0)"/>
      <use xlink:href="#DejaVuSans-20" transform="translate(438.025391 0)"/>
      <use xlink:href="#DejaVuSans-74" transform="translate(469.8125 0)"/>
      <use xlink:href="#DejaVuSans-65" transform="translate(509.021484 0)"/>
      <use xlink:href="#DejaVuSans-6d" transform="translate(570.544922 0)"/>
      <use xlink:href="#DejaVuSans-70" transform="translate(667.957031 0)"/>
      <use xlink:href="#DejaVuSans-65" transform="translate(731.433594 0)"/>
      <use xlink:href="#DejaVuSans-72" transform="translate(792.957031 0)"/>
      <use xlink:href="#DejaVuSans-61" transform="translate(834.070312 0)"/>
      <use xlink:href="#DejaVuSans-74" transform="translate(895.349609 0)"/>
      <use xlink:href="#DejaVuSans-75" transform="translate(934.558594 0)"/>
      <use xlink:href="#DejaVuSans-72" transform="translate(997.9375 0)"/>
      <use xlink:href="#DejaVuSans-65" transform="translate(1036.800781 0)"/>
      <use xlink:href="#DejaVuSans-20" transform="translate(1098.324219 0)"/>
      <use xlink:href="#DejaVuSans-28" transform="translate(1130.111328 0)"/>
      <use xlink:href="#DejaVuSans-4b" transform="translate(1169.125 0)"/>
      <use xlink:href="#DejaVuSans-29" transform="translate(1234.701172 0)"/>
     </g>
    </g>
   </g>
   <g id="matplotlib.axis_2">
    <g id="ytick_1">
     <g id="line2d_6">
      <defs>
       <path id="mdb60e77f92" d="M 0 0 
L -3.5 0 
" style="stroke: #000000; stroke-width: 0.8"/>
      </defs>
      <g>
       <use xlink:href="#mdb60e77f92" x="57.6" y="295.488" style="stroke: #000000; stroke-width: 0.8"/>
      </g>
     </g>
     <g id="text_7">
      <!-- 0 -->
      <g transform="translate(44.2375 299.287219) scale(0.1 -0.1)">
       <use xlink:href="#DejaVuSans-30"/>
      </g>
     </g>
    </g>
    <g id="ytick_2">
     <g id="line2d_7">
      <g>
       <use xlink:href="#mdb60e77f92" x="57.6" y="265.248" style="stroke: #000000; stroke-width: 0.8"/>
      </g>
     </g>
     <g id="text_8">
      <!-- 250 -->
      <g transform="translate(31.5125 269.047219) scale(0.1 -0.1)">
       <use xlink:href="#DejaVuSans-32"/>
       <use xlink:href="#DejaVuSans-35" transform="translate(63.623047 0)"/>
       <use xlink:href="#DejaVuSans-30" transform="translate(127.246094 0)"/>
      </g>
     </g>
    </g>
    <g id="ytick_3">
     <g id="line2d_8">
      <g>
       <use xlink:href="#mdb60e77f92" x="57.6" y="235.008" style="stroke: #000000; stroke-width: 0.8"/>
      </g>
     </g>
     <g id="text_9">
      <!-- 500 -->
      <g transform="translate(31.5125 238.807219) scale(0.1 -0.1)">
       <use xlink:href="#DejaVuSans-35"/>
       <use xlink:href="#DejaVuSans-30" transform="translate(63.623047 0)"/>
       <use xlink:href="#DejaVuSans-30" transform="translate(127.246094 0)"/>
      </g>
     </g>
    </g>
    <g id="ytick_4">
     <g id="line2d_9">
      <g>
       <use xlink:href="#mdb60e77f92" x="57.6" y="204.768" style="stroke: #000000; stroke-width: 0.8"/>
      </g>
     </g>
     <g id="text_10">
      <!-- 750 -->
      <g transform="translate(31.5125 208.567219) scale(0.1 -0.1)">
       <use xlink:href="#DejaVuSans-37"/>
       <use xlink:href="#DejaVuSans-35" transform="translate(63.623047 0)"/>
       <use xlink:href="#DejaVuSans-30" transform="translate(127.246094 0)"/>
      </g>
     </g>
    </g>
    <g id="ytick_5">
     <g id="line2d_10">
      <g>
       <use xlink:href="#mdb60e77f92" x="57.6" y="174.528" style="stroke: #000000; stroke-width: 0.8"/>
      </g>
     </g>
     <g id="text_11">
      <!-- 1000 -->
      <g transform="translate(25.15 178.327219) scale(0.1 -0.1)">
       <defs>
        <path id="DejaVuSans-31" d="M 794 531 
L 1825 531 
L 1825 4091 
L 703 3866 
L 703 4441 
L 1819 4666 
L 2450 4666 
L 2450 531 
L 3481 531 
L 3481 0 
L 794 0 
L 794 531 
z
" transform="scale(0.015625)"/>
       </defs>
       <use xlink:href="#DejaVuSans-31"/>
       <use xlink:href="#DejaVuSans-30" transform="translate(63.623047 0)"/>
       <use xlink:href="#DejaVuSans-30" transform="translate(127.246094 0)"/>
       <use xlink:href="#DejaVuSans-30" transform="translate(190.869141 0)"/>
      </g>
     </g>
    </g>
    <g id="ytick_6">
     <g id="line2d_11">
      <g>
       <use xlink:href="#mdb60e77f92" x="57.6" y="144.288" style="stroke: #000000; stroke-width: 0.8"/>
      </g>
     </g>
     <g id="text_12">
      <!-- 1250 -->
      <g transform="translate(25.15 148.087219) scale(0.1 -0.1)">
       <use xlink:href="#DejaVuSans-31"/>
       <use xlink:href="#DejaVuSans-32" transform="translate(63.623047 0)"/>
       <use xlink:href="#DejaVuSans-35" transform="translate(127.246094 0)"/>
       <use xlink:href="#DejaVuSans-30" transform="translate(190.869141 0)"/>
      </g>
     </g>
    </g>
    <g id="ytick_7">
     <g id="line2d_12">
      <g>
       <use xlink:href="#mdb60e77f92" x="57.6" y="114.048" style="stroke: #000000; stroke-width: 0.8"/>
      </g>
     </g>
     <g id="text_13">
      <!-- 1500 -->
      <g transform="translate(25.15 117.847219) scale(0.1 -0.1)">
       <use xlink:href="#DejaVuSans-31"/>
       <use xlink:href="#DejaVuSans-35" transform="translate(63.623047 0)"/>
       <use xlink:href="#DejaVuSans-30" transform="translate(127.246094 0)"/>
       <use xlink:href="#DejaVuSans-30" transform="translate(190.869141 0)"/>
      </g>
     </g>
    </g>
    <g id="ytick_8">
     <g id="line2d_13">
      <g>
       <use xlink:href="#mdb60e77f92" x="57.6" y="83.808" style="stroke: #000000; stroke-width: 0.8"/>
      </g>
     </g>
     <g id="text_14">
      <!-- 1750 -->
      <g transform="translate(25.15 87.607219) scale(0.1 -0.1)">
       <use xlink:href="#DejaVuSans-31"/>
       <use xlink:href="#DejaVuSans-37" transform="translate(63.623047 0)"/>
       <use xlink:href="#DejaVuSans-35" transform="translate(127.246094 0)"/>
       <use xlink:href="#DejaVuSans-30" transform="translate(190.869141 0)"/>
      </g>
     </g>
    </g>
    <g id="ytick_9">
     <g id="line2d_14">
      <g>
       <use xlink:href="#mdb60e77f92" x="57.6" y="53.568" style="stroke: #000000; stroke-width: 0.8"/>
      </g>
     </g>
     <g id="text_15">
      <!-- 2000 -->
      <g transform="translate(25.15 57.367219) scale(0.1 -0.1)">
       <use xlink:href="#DejaVuSans-32"/>
       <use xlink:href="#DejaVuSans-30" transform="translate(63.623047 0)"/>
       <use xlink:href="#DejaVuSans-30" transform="translate(127.246094 0)"/>
       <use xlink:href="#DejaVuSans-30" transform="translate(190.869141 0)"/>
      </g>
     </g>
    </g>
    <g id="text_16">
     <!-- Height (m) -->
     <g transform="translate(19.070312 201.417844) rotate(-90) scale(0.1 -0.1)">
      <defs>
       <path id="DejaVuSans-48" d="M 628 4666 
L 1259 4666 
L 1259 2753 
L 3553 2753 
L 3553 4666 
L 4184 4666 
L 4184 0 
L 3553 0 
L 3553 2222 
L 1259 2222 
L 1259 0 
L 628 0 
L 628 4666 
z
" transform="scale(0.015625)"/>
       <path id="DejaVuSans-67" d="M 2906 1791 
Q 2906 2416 2648 2759 
Q 2391 3103 1925 3103 
Q 1463 3103 1205 2759 
Q 947 2416 947 1791 
Q 947 1169 1205 825 
Q 1463 481 1925 481 
Q 2391 481 2648 825 
Q 2906 1169 2906 1791 
z
M 3481 434 
Q 3481 -459 3084 -895 
Q 2688 -1331 1869 -1331 
Q 1566 -1331 1297 -1286 
Q 1028 -1241 775 -1147 
L 775 -588 
Q 1028 -725 1275 -790 
Q 1522 -856 1778 -856 
Q 2344 -856 2625 -561 
Q 2906 -266 2906 331 
L 2906 616 
Q 2728 306 2450 153 
Q 2172 0 1784 0 
Q 1141 0 747 490 
Q 353 981 353 1791 
Q 353 2603 747 3093 
Q 1141 3584 1784 3584 
Q 2172 3584 2450 3431 
Q 2728 3278 2906 2969 
L 2906 3500 
L 3481 3500 
L 3481 434 
z
" transform="scale(0.015625)"/>
       <path id="DejaVuSans-68" d="M 3513 2113 
L 3513 0 
L 2938 0 
L 2938 2094 
Q 2938 2591 2744 2837 
Q 2550 3084 2163 3084 
Q 1697 3084 1428 2787 
Q 1159 2491 1159 1978 
L 1159 0 
L 581 0 
L 581 4863 
L 1159 4863 
L 1159 2956 
Q 1366 3272 1645 3428 
Q 1925 3584 2291 3584 
Q 2894 3584 3203 3211 
Q 3513 2838 3513 2113 
z
" transform="scale(0.015625)"/>
      </defs>
      <use xlink:href="#DejaVuSans-48"/>
      <use xlink:href="#DejaVuSans-65" transform="translate(75.195312 0)"/>
      <use xlink:href="#DejaVuSans-69" transform="translate(136.71875 0)"/>
      <use xlink:href="#DejaVuSans-67" transform="translate(164.501953 0)"/>
      <use xlink:href="#DejaVuSans-68" transform="translate(227.978516 0)"/>
      <use xlink:href="#DejaVuSans-74" transform="translate(291.357422 0)"/>
      <use xlink:href="#DejaVuSans-20" transform="translate(330.566406 0)"/>
      <use xlink:href="#DejaVuSans-28" transform="translate(362.353516 0)"/>
      <use xlink:href="#DejaVuSans-6d" transform="translate(401.367188 0)"/>
      <use xlink:href="#DejaVuSans-29" transform="translate(498.779297 0)"/>
     </g>
    </g>
   </g>
   <g id="line2d_15">
    <path d="M 98.045935 295.347686 
L 95.626092 295.139635 
L 94.576183 294.849331 
L 94.148441 294.464678 
L 94.009884 293.988096 
L 94.125199 293.417165 
L 94.50601 292.763981 
L 95.230533 292.038221 
L 96.595996 291.249561 
L 99.916911 290.410099 
L 114.739454 289.524672 
L 124.65661 288.605376 
L 128.855355 287.652211 
L 131.067808 286.674854 
L 138.480197 280.411546 
L 142.456356 277.116595 
L 151.711563 271.47986 
L 155.9407 268.0325 
L 158.727051 265.717325 
L 161.010571 263.385217 
L 164.254162 259.870119 
L 165.09847 258.691967 
L 167.653294 252.772184 
L 170.028442 242.014005 
L 170.243429 240.811662 
L 170.526803 234.785434 
L 171.418488 228.73743 
L 173.640774 223.882102 
L 175.520242 222.667658 
L 204.101118 217.802651 
L 210.398788 216.583372 
L 227.171867 210.484571 
L 237.254396 205.597784 
L 239.251862 204.376091 
L 242.820839 199.479632 
L 244.517948 198.253096 
L 256.517491 193.351795 
L 259.121035 192.122844 
L 267.512713 187.214285 
L 269.128029 185.985328 
L 273.794741 181.069519 
L 276.658862 178.609189 
L 288.669132 168.760621 
L 292.272972 165.061669 
L 298.276543 158.895131 
L 300.714711 156.427544 
L 309.734369 150.256162 
L 317.784571 139.132685 
L 318.853701 137.896478 
L 324.880066 132.949211 
L 326.03814 131.713003 
L 328.472286 126.760893 
L 329.527111 125.524685 
L 336.883184 119.331539 
L 341.874389 114.377008 
L 346.351144 110.658698 
L 349.38064 108.18144 
L 354.334749 103.22208 
L 355.563889 101.981029 
L 357.155068 95.780618 
L 366.421448 89.575379 
L 373.908034 83.370125 
L 378.983714 78.403501 
L 379.921884 77.162465 
L 382.256358 72.193418 
L 383.430074 70.952368 
L 389.629861 65.980915 
L 393.52512 62.255341 
L 396.078604 59.768411 
L 397.325176 57.283888 
L 398.487273 54.796958 
L 398.487273 54.796958 
" clip-path="url(#p90b14177ed)" style="fill: none; stroke: #1f77b4; stroke-width: 1.5; stroke-linecap: square"/>
   </g>
   <g id="line2d_16">
    <path d="M 73.832727 295.488 
L 75.502371 295.24608 
L 78.856303 295.00416 
L 87.028768 294.15744 
L 90.719559 293.43168 
L 91.158939 293.18976 
L 91.949822 292.464 
L 93.853802 292.10112 
L 109.539662 289.92384 
L 112.893595 289.56096 
L 114.81222 289.07712 
L 120.655972 287.86752 
L 123.936674 285.08544 
L 125.972468 284.6016 
L 127.114855 283.63392 
L 133.192943 282.1824 
L 133.661615 281.69856 
L 137.484219 280.9728 
L 137.952891 280.60992 
L 139.754349 280.24704 
L 141.555806 280.00512 
L 141.90731 279.7632 
L 143.708767 279.40032 
L 144.045625 279.1584 
L 145.861728 278.79552 
L 147.663186 278.5536 
L 148.351547 277.9488 
L 149.625749 276.86016 
L 151.427206 276.61824 
L 152.467072 275.65056 
L 152.935744 275.28768 
L 154.751847 275.04576 
L 155.557377 274.32 
L 156.245738 273.7152 
L 158.17901 273.35232 
L 158.867371 272.74752 
L 160.507723 271.41696 
L 161.664756 270.32832 
L 162.133428 269.96544 
L 161.020333 269.72352 
L 161.840508 268.99776 
L 162.646038 268.272 
L 163.466214 267.6672 
L 164.169221 266.94144 
L 163.056126 266.69952 
L 163.40763 266.33664 
L 163.876302 266.09472 
L 165.047981 265.00608 
L 163.934885 264.76416 
L 164.989397 263.91744 
L 166.161077 262.8288 
L 165.047981 262.46592 
L 165.516653 262.224 
L 166.571164 261.25632 
L 167.274172 260.65152 
L 166.161077 260.4096 
L 167.347402 259.32096 
L 167.698906 259.07904 
L 166.702978 258.71616 
L 168.12364 257.3856 
L 168.592312 257.02272 
L 167.596384 256.65984 
L 168.41656 255.93408 
L 167.303464 255.69216 
L 168.138286 254.9664 
L 168.973108 254.24064 
L 167.962534 253.87776 
L 168.797356 253.152 
L 167.68426 252.91008 
L 168.870586 251.82144 
L 167.874658 251.45856 
L 168.70948 250.7328 
L 167.596384 250.36992 
L 168.065056 250.128 
L 169.383195 248.9184 
L 168.2701 248.67648 
L 168.987754 248.07168 
L 167.860012 247.7088 
L 169.412487 246.4992 
L 168.299392 246.13632 
L 169.383195 245.2896 
L 168.2701 244.92672 
L 169.339257 244.08 
L 168.108994 243.83808 
L 169.178152 242.8704 
L 168.182224 242.50752 
L 169.14886 241.6608 
L 169.983681 241.056 
L 168.870586 240.69312 
L 169.602885 240.08832 
L 168.475144 239.72544 
L 168.958462 239.48352 
L 169.690761 238.75776 
L 168.694834 238.39488 
L 169.412487 237.66912 
L 169.895805 237.4272 
L 168.78271 237.06432 
L 169.500363 236.45952 
L 169.983681 236.09664 
L 168.753418 235.85472 
L 169.471071 235.24992 
L 168.475144 234.88704 
L 169.573593 233.91936 
L 168.445852 233.55648 
L 169.544301 232.70976 
L 170.027619 232.34688 
L 168.914524 231.984 
L 169.998327 231.01632 
L 170.847795 230.41152 
L 171.096777 230.04864 
L 169.983681 229.80672 
L 170.833149 229.08096 
L 169.720053 228.71808 
L 170.203371 228.47616 
L 171.184653 227.50848 
L 170.188725 227.26656 
L 171.770493 225.81504 
L 170.657397 225.57312 
L 171.755847 224.60544 
L 170.642751 224.36352 
L 171.008901 224.00064 
L 169.881159 223.75872 
L 171.111423 222.67008 
L 171.843723 222.06528 
L 170.730627 221.7024 
L 171.213945 221.46048 
L 172.69319 220.12992 
L 173.557304 219.40416 
L 172.444208 219.04128 
L 171.316467 218.79936 
L 171.697263 218.43648 
L 170.569521 218.0736 
L 171.433635 217.4688 
L 180.968177 215.6544 
L 184.32211 215.29152 
L 195.614172 214.68672 
L 202.307391 213.96096 
L 205.661324 213.71904 
L 207.653179 213.35616 
L 211.007112 212.99328 
L 220.453778 211.29984 
L 220.951742 210.93696 
L 222.826429 210.57408 
L 223.573375 209.96928 
L 224.452135 209.24352 
L 225.34554 208.51776 
L 226.092486 207.91296 
L 227.967173 207.55008 
L 229.226729 206.5824 
L 231.101416 206.21952 
L 231.980176 205.49376 
L 232.360972 205.13088 
L 234.235659 204.768 
L 235.641675 203.67936 
L 236.784062 202.71168 
L 237.545654 202.10688 
L 238.43906 201.38112 
L 240.343039 199.68768 
L 242.217726 199.44576 
L 243.111132 198.72 
L 244.648961 197.38944 
L 245.029757 197.14752 
L 243.916661 196.78464 
L 245.205509 195.81696 
L 246.362543 194.72832 
L 248.23723 194.4864 
L 249.145282 193.76064 
L 249.526077 193.39776 
L 251.415411 193.03488 
L 253.304744 192.79296 
L 253.68554 192.43008 
L 255.574873 192.0672 
L 256.351111 191.4624 
L 257.508144 190.49472 
L 257.903586 190.2528 
L 259.778274 189.88992 
L 258.679824 189.52704 
L 259.06062 189.28512 
L 261.081767 188.92224 
L 262.502429 187.59168 
L 262.89787 187.34976 
L 261.784775 186.98688 
L 263.351896 185.65632 
L 263.732692 185.4144 
L 265.636671 185.05152 
L 266.149281 184.68864 
L 266.412909 184.32576 
L 265.299813 184.08384 
L 265.958883 183.6 
L 267.848217 183.23712 
L 268.243658 182.87424 
L 267.130563 182.63232 
L 269.093126 180.93888 
L 269.488568 180.69696 
L 271.377901 180.33408 
L 271.773343 180.09216 
L 272.036971 179.72928 
L 273.223296 178.88256 
L 271.978387 178.51968 
L 273.164713 177.67296 
L 275.40555 175.7376 
L 275.800992 175.49568 
L 274.556082 175.25376 
L 276.137849 173.9232 
L 276.928733 173.3184 
L 278.246873 172.22976 
L 277.148423 171.86688 
L 278.993818 170.2944 
L 279.403906 170.05248 
L 281.791203 167.99616 
L 282.582087 167.39136 
L 284.193146 166.0608 
L 284.852216 165.57696 
L 286.726903 164.00448 
L 287.122345 163.76256 
L 287.400619 163.39968 
L 289.304598 163.15776 
L 291.45756 161.34336 
L 292.263089 160.73856 
L 293.742335 159.52896 
L 294.152423 159.28704 
L 294.679678 158.68224 
L 295.089766 158.44032 
L 293.844857 158.1984 
L 294.518573 157.5936 
L 296.437198 157.35168 
L 297.652815 156.384 
L 299.439627 156.02112 
L 299.849715 155.7792 
L 298.736619 155.41632 
L 299.410335 154.93248 
L 298.165425 154.5696 
L 298.985601 153.9648 
L 300.069404 153.11808 
L 302.237012 151.30368 
L 302.647099 151.06176 
L 302.925373 150.69888 
L 303.745549 150.09408 
L 304.829353 149.1264 
L 303.716257 148.88448 
L 306.323244 146.7072 
L 306.733332 146.46528 
L 305.620236 146.1024 
L 308.505497 143.6832 
L 308.915585 143.44128 
L 309.179213 143.0784 
L 309.603947 142.83648 
L 310.014035 142.4736 
L 308.769125 142.23168 
L 309.457487 141.74784 
L 312.210934 139.4496 
L 313.03111 138.8448 
L 313.309383 138.48192 
L 313.734117 138.24 
L 314.832567 137.27232 
L 313.734117 137.0304 
L 315.667389 136.66752 
L 314.554293 136.30464 
L 315.667389 135.45792 
L 314.554293 135.09504 
L 314.832567 134.85312 
L 316.780484 134.49024 
L 317.74712 133.76448 
L 319.695037 133.4016 
L 321.218221 132.192 
L 323.312598 130.49856 
L 322.067688 130.13568 
L 322.492422 129.89376 
L 323.751978 128.80512 
L 322.638882 128.5632 
L 325.026179 126.50688 
L 323.913083 126.26496 
L 324.762551 125.5392 
L 326.710468 125.17632 
L 327.120556 124.9344 
L 327.413476 124.57152 
L 327.83821 124.3296 
L 329.786127 123.96672 
L 332.173424 122.03136 
L 334.135988 121.66848 
L 336.962665 119.37024 
L 337.387398 119.12832 
L 339.335316 118.76544 
L 340.624163 117.6768 
L 339.364608 117.43488 
L 342.352391 115.01568 
L 342.79177 114.77376 
L 343.070044 114.41088 
L 343.494778 114.048 
L 342.396329 113.68512 
L 344.974024 111.6288 
L 345.823491 111.024 
L 346.116411 110.78208 
L 348.078974 110.4192 
L 348.943088 109.69344 
L 347.829993 109.33056 
L 351.139987 106.66944 
L 352.004101 106.06464 
L 352.428835 105.70176 
L 351.330385 105.33888 
L 351.623305 104.976 
L 352.487419 104.3712 
L 354.069186 103.04064 
L 352.970737 102.67776 
L 354.56715 101.3472 
L 353.600514 100.98432 
L 354.039894 100.7424 
L 354.332814 100.37952 
L 358.404401 97.1136 
L 358.84378 96.87168 
L 357.730685 96.5088 
L 358.023605 96.14592 
L 360.000814 95.78304 
L 360.440194 95.42016 
L 359.341744 95.05728 
L 359.781124 94.81536 
L 361.758333 94.45248 
L 362.051253 94.0896 
L 362.490633 93.84768 
L 364.467842 93.4848 
L 365.200142 92.88 
L 364.101692 92.51712 
L 364.541072 92.15424 
L 363.427977 91.79136 
L 363.882003 91.54944 
L 364.174922 91.18656 
L 363.061827 90.94464 
L 363.354747 90.58176 
L 366.445052 88.16256 
L 368.436907 87.92064 
L 368.729827 87.55776 
L 367.631377 87.31584 
L 367.924297 86.95296 
L 366.811201 86.59008 
L 367.265227 86.34816 
L 366.005672 85.98528 
L 366.459698 85.74336 
L 366.752617 85.38048 
L 368.744473 85.13856 
L 370.809558 83.44512 
L 369.711108 83.08224 
L 371.776194 81.3888 
L 372.230219 81.14688 
L 372.523139 80.784 
L 371.42469 80.54208 
L 374.397827 78.12288 
L 373.152917 77.76 
L 374.046323 77.1552 
L 375.086188 76.18752 
L 373.987739 75.9456 
L 376.375036 74.01024 
L 375.276586 73.64736 
L 376.931584 72.3168 
L 375.833134 72.07488 
L 376.272514 71.712 
L 378.132555 71.34912 
L 378.586581 71.1072 
L 379.025961 70.74432 
L 377.781051 70.38144 
L 381.091046 67.72032 
L 379.992596 67.4784 
L 380.300162 67.11552 
L 382.306664 66.8736 
L 382.599583 66.51072 
L 383.053609 66.2688 
L 381.8087 65.90592 
L 382.716751 65.30112 
L 385.133341 63.36576 
L 384.034891 63.00288 
L 385.250508 61.91424 
L 384.152059 61.67232 
L 384.606085 61.30944 
L 386.612586 60.94656 
L 386.920152 60.58368 
L 385.821702 60.34176 
L 386.729754 59.616 
L 385.631304 59.25312 
L 385.93887 58.89024 
L 386.392896 58.64832 
L 386.700462 58.28544 
L 387.154488 57.92256 
L 386.056038 57.55968 
L 388.047893 56.10816 
L 386.949444 55.74528 
L 387.25701 55.3824 
L 387.711036 55.14048 
L 388.018601 54.7776 
L 389.702891 53.568 
L 389.702891 53.568 
" clip-path="url(#p90b14177ed)" style="fill: none; stroke: #ff7f0e; stroke-width: 1.5; stroke-linecap: square"/>
   </g>
   <g id="patch_3">
    <path d="M 57.6 307.584 
L 57.6 41.472 
" style="fill: none; stroke: #000000; stroke-width: 0.8; stroke-linejoin: miter; stroke-linecap: square"/>
   </g>
   <g id="patch_4">
    <path d="M 414.72 307.584 
L 414.72 41.472 
" style="fill: none; stroke: #000000; stroke-width: 0.8; stroke-linejoin: miter; stroke-linecap: square"/>
   </g>
   <g id="patch_5">
    <path d="M 57.6 307.584 
L 414.72 307.584 
" style="fill: none; stroke: #000000; stroke-width: 0.8; stroke-linejoin: miter; stroke-linecap: square"/>
   </g>
   <g id="patch_6">
    <path d="M 57.6 41.472 
L 414.72 41.472 
" style="fill: none; stroke: #000000; stroke-width: 0.8; stroke-linejoin: miter; stroke-linecap: square"/>
   </g>
   <g id="text_17">
    <!-- Potential Temperature Profile at 05:50 -->
    <g transform="translate(122.274375 11.472) scale(0.12 -0.12)">
     <defs>
      <path id="DejaVuSans-54" d="M -19 4666 
L 3928 4666 
L 3928 4134 
L 2272 4134 
L 2272 0 
L 1638 0 
L 1638 4134 
L -19 4134 
L -19 4666 
z
" transform="scale(0.015625)"/>
      <path id="DejaVuSans-66" d="M 2375 4863 
L 2375 4384 
L 1825 4384 
Q 1516 4384 1395 4259 
Q 1275 4134 1275 3809 
L 1275 3500 
L 2222 3500 
L 2222 3053 
L 1275 3053 
L 1275 0 
L 697 0 
L 697 3053 
L 147 3053 
L 147 3500 
L 697 3500 
L 697 3744 
Q 697 4328 969 4595 
Q 1241 4863 1831 4863 
L 2375 4863 
z
" transform="scale(0.015625)"/>
      <path id="DejaVuSans-3a" d="M 750 794 
L 1409 794 
L 1409 0 
L 750 0 
L 750 794 
z
M 750 3309 
L 1409 3309 
L 1409 2516 
L 750 2516 
L 750 3309 
z
" transform="scale(0.015625)"/>
     </defs>
     <use xlink:href="#DejaVuSans-50"/>
     <use xlink:href="#DejaVuSans-6f" transform="translate(56.677734 0)"/>
     <use xlink:href="#DejaVuSans-74" transform="translate(117.859375 0)"/>
     <use xlink:href="#DejaVuSans-65" transform="translate(157.068359 0)"/>
     <use xlink:href="#DejaVuSans-6e" transform="translate(218.591797 0)"/>
     <use xlink:href="#DejaVuSans-74" transform="translate(281.970703 0)"/>
     <use xlink:href="#DejaVuSans-69" transform="translate(321.179688 0)"/>
     <use xlink:href="#DejaVuSans-61" transform="translate(348.962891 0)"/>
     <use xlink:href="#DejaVuSans-6c" transform="translate(410.242188 0)"/>
     <use xlink:href="#DejaVuSans-20" transform="translate(438.025391 0)"/>
     <use xlink:href="#DejaVuSans-54" transform="translate(469.8125 0)"/>
     <use xlink:href="#DejaVuSans-65" transform="translate(513.896484 0)"/>
     <use xlink:href="#DejaVuSans-6d" transform="translate(575.419922 0)"/>
     <use xlink:href="#DejaVuSans-70" transform="translate(672.832031 0)"/>
     <use xlink:href="#DejaVuSans-65" transform="translate(736.308594 0)"/>
     <use xlink:href="#DejaVuSans-72" transform="translate(797.832031 0)"/>
     <use xlink:href="#DejaVuSans-61" transform="translate(838.945312 0)"/>
     <use xlink:href="#DejaVuSans-74" transform="translate(900.224609 0)"/>
     <use xlink:href="#DejaVuSans-75" transform="translate(939.433594 0)"/>
     <use xlink:href="#DejaVuSans-72" transform="translate(1002.8125 0)"/>
     <use xlink:href="#DejaVuSans-65" transform="translate(1041.675781 0)"/>
     <use xlink:href="#DejaVuSans-20" transform="translate(1103.199219 0)"/>
     <use xlink:href="#DejaVuSans-50" transform="translate(1134.986328 0)"/>
     <use xlink:href="#DejaVuSans-72" transform="translate(1193.539062 0)"/>
     <use xlink:href="#DejaVuSans-6f" transform="translate(1232.402344 0)"/>
     <use xlink:href="#DejaVuSans-66" transform="translate(1293.583984 0)"/>
     <use xlink:href="#DejaVuSans-69" transform="translate(1328.789062 0)"/>
     <use xlink:href="#DejaVuSans-6c" transform="translate(1356.572266 0)"/>
     <use xlink:href="#DejaVuSans-65" transform="translate(1384.355469 0)"/>
     <use xlink:href="#DejaVuSans-20" transform="translate(1445.878906 0)"/>
     <use xlink:href="#DejaVuSans-61" transform="translate(1477.666016 0)"/>
     <use xlink:href="#DejaVuSans-74" transform="translate(1538.945312 0)"/>
     <use xlink:href="#DejaVuSans-20" transform="translate(1578.154297 0)"/>
     <use xlink:href="#DejaVuSans-30" transform="translate(1609.941406 0)"/>
     <use xlink:href="#DejaVuSans-35" transform="translate(1673.564453 0)"/>
     <use xlink:href="#DejaVuSans-3a" transform="translate(1737.1875 0)"/>
     <use xlink:href="#DejaVuSans-35" transform="translate(1770.878906 0)"/>
     <use xlink:href="#DejaVuSans-30" transform="translate(1834.501953 0)"/>
    </g>
   </g>
   <g id="legend_1">
    <g id="patch_7">
     <path d="M 120.894375 37.538925 
L 351.425625 37.538925 
Q 353.425625 37.538925 353.425625 35.538925 
L 353.425625 21.8608 
Q 353.425625 19.8608 351.425625 19.8608 
L 120.894375 19.8608 
Q 118.894375 19.8608 118.894375 21.8608 
L 118.894375 35.538925 
Q 118.894375 37.538925 120.894375 37.538925 
z
" style="fill: #ffffff; opacity: 0.8; stroke: #cccccc; stroke-linejoin: miter"/>
    </g>
    <g id="line2d_17">
     <path d="M 122.894375 27.959238 
L 132.894375 27.959238 
L 142.894375 27.959238 
" style="fill: none; stroke: #1f77b4; stroke-width: 1.5; stroke-linecap: square"/>
    </g>
    <g id="text_18">
     <!-- Model -->
     <g transform="translate(150.894375 31.459238) scale(0.1 -0.1)">
      <defs>
       <path id="DejaVuSans-4d" d="M 628 4666 
L 1569 4666 
L 2759 1491 
L 3956 4666 
L 4897 4666 
L 4897 0 
L 4281 0 
L 4281 4097 
L 3078 897 
L 2444 897 
L 1241 4097 
L 1241 0 
L 628 0 
L 628 4666 
z
" transform="scale(0.015625)"/>
       <path id="DejaVuSans-64" d="M 2906 2969 
L 2906 4863 
L 3481 4863 
L 3481 0 
L 2906 0 
L 2906 525 
Q 2725 213 2448 61 
Q 2172 -91 1784 -91 
Q 1150 -91 751 415 
Q 353 922 353 1747 
Q 353 2572 751 3078 
Q 1150 3584 1784 3584 
Q 2172 3584 2448 3432 
Q 2725 3281 2906 2969 
z
M 947 1747 
Q 947 1113 1208 752 
Q 1469 391 1925 391 
Q 2381 391 2643 752 
Q 2906 1113 2906 1747 
Q 2906 2381 2643 2742 
Q 2381 3103 1925 3103 
Q 1469 3103 1208 2742 
Q 947 2381 947 1747 
z
" transform="scale(0.015625)"/>
      </defs>
      <use xlink:href="#DejaVuSans-4d"/>
      <use xlink:href="#DejaVuSans-6f" transform="translate(86.279297 0)"/>
      <use xlink:href="#DejaVuSans-64" transform="translate(147.460938 0)"/>
      <use xlink:href="#DejaVuSans-65" transform="translate(210.9375 0)"/>
      <use xlink:href="#DejaVuSans-6c" transform="translate(272.460938 0)"/>
     </g>
    </g>
    <g id="line2d_18">
     <path d="M 200.920937 27.959238 
L 210.920937 27.959238 
L 220.920937 27.959238 
" style="fill: none; stroke: #ff7f0e; stroke-width: 1.5; stroke-linecap: square"/>
    </g>
    <g id="text_19">
     <!-- Met Office Observations -->
     <g transform="translate(228.920937 31.459238) scale(0.1 -0.1)">
      <defs>
       <path id="DejaVuSans-4f" d="M 2522 4238 
Q 1834 4238 1429 3725 
Q 1025 3213 1025 2328 
Q 1025 1447 1429 934 
Q 1834 422 2522 422 
Q 3209 422 3611 934 
Q 4013 1447 4013 2328 
Q 4013 3213 3611 3725 
Q 3209 4238 2522 4238 
z
M 2522 4750 
Q 3503 4750 4090 4092 
Q 4678 3434 4678 2328 
Q 4678 1225 4090 567 
Q 3503 -91 2522 -91 
Q 1538 -91 948 565 
Q 359 1222 359 2328 
Q 359 3434 948 4092 
Q 1538 4750 2522 4750 
z
" transform="scale(0.015625)"/>
       <path id="DejaVuSans-63" d="M 3122 3366 
L 3122 2828 
Q 2878 2963 2633 3030 
Q 2388 3097 2138 3097 
Q 1578 3097 1268 2742 
Q 959 2388 959 1747 
Q 959 1106 1268 751 
Q 1578 397 2138 397 
Q 2388 397 2633 464 
Q 2878 531 3122 666 
L 3122 134 
Q 2881 22 2623 -34 
Q 2366 -91 2075 -91 
Q 1284 -91 818 406 
Q 353 903 353 1747 
Q 353 2603 823 3093 
Q 1294 3584 2113 3584 
Q 2378 3584 2631 3529 
Q 2884 3475 3122 3366 
z
" transform="scale(0.015625)"/>
       <path id="DejaVuSans-62" d="M 3116 1747 
Q 3116 2381 2855 2742 
Q 2594 3103 2138 3103 
Q 1681 3103 1420 2742 
Q 1159 2381 1159 1747 
Q 1159 1113 1420 752 
Q 1681 391 2138 391 
Q 2594 391 2855 752 
Q 3116 1113 3116 1747 
z
M 1159 2969 
Q 1341 3281 1617 3432 
Q 1894 3584 2278 3584 
Q 2916 3584 3314 3078 
Q 3713 2572 3713 1747 
Q 3713 922 3314 415 
Q 2916 -91 2278 -91 
Q 1894 -91 1617 61 
Q 1341 213 1159 525 
L 1159 0 
L 581 0 
L 581 4863 
L 1159 4863 
L 1159 2969 
z
" transform="scale(0.015625)"/>
       <path id="DejaVuSans-73" d="M 2834 3397 
L 2834 2853 
Q 2591 2978 2328 3040 
Q 2066 3103 1784 3103 
Q 1356 3103 1142 2972 
Q 928 2841 928 2578 
Q 928 2378 1081 2264 
Q 1234 2150 1697 2047 
L 1894 2003 
Q 2506 1872 2764 1633 
Q 3022 1394 3022 966 
Q 3022 478 2636 193 
Q 2250 -91 1575 -91 
Q 1294 -91 989 -36 
Q 684 19 347 128 
L 347 722 
Q 666 556 975 473 
Q 1284 391 1588 391 
Q 1994 391 2212 530 
Q 2431 669 2431 922 
Q 2431 1156 2273 1281 
Q 2116 1406 1581 1522 
L 1381 1569 
Q 847 1681 609 1914 
Q 372 2147 372 2553 
Q 372 3047 722 3315 
Q 1072 3584 1716 3584 
Q 2034 3584 2315 3537 
Q 2597 3491 2834 3397 
z
" transform="scale(0.015625)"/>
       <path id="DejaVuSans-76" d="M 191 3500 
L 800 3500 
L 1894 563 
L 2988 3500 
L 3597 3500 
L 2284 0 
L 1503 0 
L 191 3500 
z
" transform="scale(0.015625)"/>
      </defs>
      <use xlink:href="#DejaVuSans-4d"/>
      <use xlink:href="#DejaVuSans-65" transform="translate(86.279297 0)"/>
      <use xlink:href="#DejaVuSans-74" transform="translate(147.802734 0)"/>
      <use xlink:href="#DejaVuSans-20" transform="translate(187.011719 0)"/>
      <use xlink:href="#DejaVuSans-4f" transform="translate(218.798828 0)"/>
      <use xlink:href="#DejaVuSans-66" transform="translate(297.509766 0)"/>
      <use xlink:href="#DejaVuSans-66" transform="translate(332.714844 0)"/>
      <use xlink:href="#DejaVuSans-69" transform="translate(367.919922 0)"/>
      <use xlink:href="#DejaVuSans-63" transform="translate(395.703125 0)"/>
      <use xlink:href="#DejaVuSans-65" transform="translate(450.683594 0)"/>
      <use xlink:href="#DejaVuSans-20" transform="translate(512.207031 0)"/>
      <use xlink:href="#DejaVuSans-4f" transform="translate(543.994141 0)"/>
      <use xlink:href="#DejaVuSans-62" transform="translate(622.705078 0)"/>
      <use xlink:href="#DejaVuSans-73" transform="translate(686.181641 0)"/>
      <use xlink:href="#DejaVuSans-65" transform="translate(738.28125 0)"/>
      <use xlink:href="#DejaVuSans-72" transform="translate(799.804688 0)"/>
      <use xlink:href="#DejaVuSans-76" transform="translate(840.917969 0)"/>
      <use xlink:href="#DejaVuSans-61" transform="translate(900.097656 0)"/>
      <use xlink:href="#DejaVuSans-74" transform="translate(961.376953 0)"/>
      <use xlink:href="#DejaVuSans-69" transform="translate(1000.585938 0)"/>
      <use xlink:href="#DejaVuSans-6f" transform="translate(1028.369141 0)"/>
      <use xlink:href="#DejaVuSans-6e" transform="translate(1089.550781 0)"/>
      <use xlink:href="#DejaVuSans-73" transform="translate(1152.929688 0)"/>
     </g>
    </g>
   </g>
  </g>
 </g>
 <defs>
  <clipPath id="p90b14177ed">
   <rect x="57.6" y="41.472" width="357.12" height="266.112"/>
  </clipPath>
 </defs>
</svg>
